<?xml version="1.0" encoding="utf-8"?>
<!-- Generator: Adobe Illustrator 23.0.3, SVG Export Plug-In . SVG Version: 6.00 Build 0)  -->
<!DOCTYPE svg PUBLIC "-//W3C//DTD SVG 1.1//EN" "http://www.w3.org/Graphics/SVG/1.1/DTD/svg11.dtd" [
	<!ENTITY ns_extend "http://ns.adobe.com/Extensibility/1.0/">
	<!ENTITY ns_ai "http://ns.adobe.com/AdobeIllustrator/10.0/">
	<!ENTITY ns_graphs "http://ns.adobe.com/Graphs/1.0/">
	<!ENTITY ns_vars "http://ns.adobe.com/Variables/1.0/">
	<!ENTITY ns_imrep "http://ns.adobe.com/ImageReplacement/1.0/">
	<!ENTITY ns_sfw "http://ns.adobe.com/SaveForWeb/1.0/">
	<!ENTITY ns_custom "http://ns.adobe.com/GenericCustomNamespace/1.0/">
	<!ENTITY ns_adobe_xpath "http://ns.adobe.com/XPath/1.0/">
]>
<svg version="1.1" id="圖層_1" xmlns:x="&ns_extend;" xmlns:i="&ns_ai;" xmlns:graph="&ns_graphs;"
	 xmlns="http://www.w3.org/2000/svg" xmlns:xlink="http://www.w3.org/1999/xlink" x="0px" y="0px" viewBox="0 0 128.2 96.5"
	 style="enable-background:new 0 0 128.2 96.5;" xml:space="preserve">
<style type="text/css">
	.st0{fill:#F4DB26;}
	.st1{fill:#211512;}
	.st2{fill:#FFFFFF;}
</style>
<metadata>
	<sfw  xmlns="&ns_sfw;">
		<slices></slices>
		<sliceSourceBounds  bottomLeftOrigin="true" height="89.4" width="123.5" x="3.1" y="64.4"></sliceSourceBounds>
	</sfw>
</metadata>
<g id="XMLID_220_">
	<g id="XMLID_221_">
		<g id="XMLID_234_">
			<g id="XMLID_425_">
				<path id="XMLID_426_" class="st0" d="M123.9,4.8L122,6.2l-1.1,0.7l-0.8,0.6l-0.5,0.3l-1.3,0.9L118,8.9l-1.4,0.9l-1.7,1.1
					l-1.7,1.1l-1.6,1l-1.6,0.9l-1.6,0.8l-1.5,0.9l-1.5,0.7l-1.5,0.7l-1.5,0.7l-1.5,0.6l-1.4,0.6L98,19.4l-1.4,0.5l-0.5,0.2l-0.9,0.3
					l-0.6,0.2l-0.8,0.2l-1.4,0.3L91,21.4l-1.5,0.3c-0.1,0-1.5,0.2-1.5,0.2L86.4,22l-1.5,0.1h-1.6l0,0h-1.4L80.4,22l-1.5-0.1
					l-1.5-0.2c-0.1,0-1.2-0.2-1.2-0.2h-0.4l0,0l-1.5-0.2l0,0L72.7,21l-1.6-0.3l-1.3-0.2l-1.6-0.4l-1-0.2l-0.7-0.2l-1.7-0.5l-1.7-0.5
					l-1.4-0.4h-0.2l-1.6-0.5l-1.5-0.5l-1.6-0.4l-1.5-0.4l-1.5-0.4l-1.4-0.4c0,0.1-1.1-0.2-1.1-0.2L51,15.4l-1.5-0.3
					c0.1,0-1.3-0.3-1.3-0.3c0,0.1-1.3-0.2-1.3-0.2l-1.4-0.2l-1.3-0.2l-1.4-0.3l-1.3-0.1h-0.2h-1.1l-1.4-0.1h-1.2l-1.2,0.1l-1.2,0.1
					L33.8,14l-1.2,0.2l-1.3,0.3l-1.2,0.3l-1.2,0.4l-1.2,0.5l-1.2,0.5c0.1,0-1.1,0.6-1.1,0.6l-0.1,0.1l-1.1,0.6L23,18.2l-1.2,0.7
					l-1.1,0.8l-1.5,1.2l-0.1,0.4l-0.5,1.4l-0.1,0.6l-0.6,2.1l-0.1,0.7l-0.3,1.2l-0.4,1.4l-0.2,0.5l-0.5,2l-0.3,0.9L15.6,34l-0.3,1.2
					L14.8,37l-0.1,0.2l-0.4,1.4l-0.2,0.8l-0.3,1l-0.9,3.2l-0.5,1.1l-0.8,2.6l-0.1,0.4l-0.2,0.8l-0.4,1.2l-0.6,2.2l-0.2,0.5l-1.8,5.9
					l-0.7,2.1l-0.2,1L7,62.5l-0.6,2.2l-0.7,2.2L4.5,71l-1.4,4.5l3.4-2.6L8,71.7l1.3-0.9l1.4-0.8l1.3-0.8l1.3-0.7l1.3-0.5l1.2-0.4
					l1.2-0.4l1.3-0.3l1.2-0.2l1.2-0.1l1-0.1h0.2h1.2l1.2,0.1l1.1,0.1l1.2,0.2l1,0.2h0.2l1.1,0.3l1.2,0.4l1.2,0.4l1.1,0.4
					c0.1,0,1.2,0.5,1.2,0.5l1.3,0.5l1.2,0.6l1.2,0.6l1.3,0.7l0.7,0.4l0.5,0.3l0.6,0.4l1,0.6l2.2,1.2l1.3,0.7l0.9,0.5l1.7,1l1,0.6
					l2.9,1.7l1.1,0.6l1.6,1l1.4,0.8l0.4,0.2l1,0.6l1.3,0.7l0.2,0.1l1.4,0.8c0.1,0,1.5,0.7,1.5,0.7l0.3,0.2l1.2,0.5l1.4,0.7l1.5,0.6
					l1.2,0.5l-0.1-0.2l1.5,0.5l1.5,0.5l1.5,0.4l1.5,0.4l1.6,0.3l0.4,0.1l1.2,0.3l1.5,0.2l1.7,0.2l1.6,0.2l1.7,0.1h1.7l1.7-0.1
					l1.7-0.1l1.8-0.2l1.7-0.2l1.8-0.3l1.8-0.4l1.9-0.5l1.8-0.5l1.9-0.6l1.6-0.7l0.2-0.1l2-0.9l1.9-0.9l1.9-1.1l2.5-1.6v-0.5l0.7-3.2
					l1.4-6.5l0.9-3.9l0.6-2.5l0.7-3.2l1.3-6.3l0.7-3.3l0.7-3.2L118,46l0.2-1l0.5-2.2l1.2-6.2l0.6-3.2l0.6-3.2l0.6-3l0.6-3.1l0.6-3.1
					l0.2-1.1l0.4-1.9l0.6-3.1l0.6-3.1l0.6-3.1l0.6-3.1l0.7-3.4L123.9,4.8z M119.5,11.2l0.3-0.2l1.3-0.9l0.5-0.3c0,0,1-0.7,1.1-0.8
					c0,0.1-1.1,5.8-1.1,5.8l-0.6,3.1l-0.6,3l-0.6,3.1l-0.6,3.1l-0.6,3.1l-0.7,3.5l-0.5,2.8l-1.3,6.1l-0.6,3.2l-0.6,3.1l-0.8,4.1
					l-0.6,2.4l-1.3,6.4l-0.2,1l-0.5,2.1l-0.6,2.5l-0.9,3.9l-1.5,6.5l-0.5,2.6c0,0,0,0.1,0,0.2c-0.4,0.3-1.4,0.9-1.4,0.9l-1.8,1
					l-1.8,0.9l-1.8,0.8l-0.2,0.1l-1.5,0.6l-1.8,0.6L96,86l-1.8,0.5l-1.7,0.4l-1.7,0.3l-1.7,0.2l-1.6,0.2l-1.6,0.1l-1.6,0.1l0,0
					c-0.1,0-1.6,0-1.6,0l-1.5-0.1l0,0l-1.6-0.1l-1.5-0.2c0-0.1-1.5-0.3-1.5-0.3l-1.2-0.2L75,86.8c-0.1,0-1.4-0.3-1.4-0.3l0,0
					l-1.5-0.4l-1.4-0.4l-1.5-0.5l-1.4-0.5l-0.3-0.1l-1.1-0.5c0-0.1-1.5-0.6-1.5-0.6l-1.4-0.6l-1.1-0.5l-0.3-0.1l-1.4-0.6L59.3,81
					l-1.4-0.8l-1-0.5l-1.7-1l-1.7-0.9l-1-0.6l-4-2.3l-1.7-1l-1-0.5l-1.2-0.7l-0.8-0.4l-1.3-0.8L40.8,70l-1.3-0.7l-1.2-0.6L37,68.1
					l-1.3-0.6l-1.3-0.6l-1.3-0.5l-1.3-0.5l-1.2-0.4l-1.3-0.4C29.2,65,28,64.8,28,64.8l-0.1-0.1l-1-0.2l-1.3-0.2l-1.1-0.1l-0.1-0.1
					L23.3,64h-0.1h-1.4h-0.2l-1.1,0.1l-1.4,0.2l-1.4,0.2l-1.3,0.3L15,65.2l-1.3,0.5l-1.4,0.6L10.8,67l-1.5,0.8
					c0.1,0-0.8,0.5-1.2,0.8C8.2,68.3,8.3,68,8.3,68L9,65.8l0.2-0.6l0.5-1.6l0.4-1.2l0.3-1l0.6-2.1l1.8-6l0.8-2.6l0.4-1.2l0.2-0.8
					l0.2-0.4l1.1-3.7l1.2-4.2l0.6-2.2l0.6-2l1.1-4l0.6-2l0.1-0.5l0.4-1.4c-0.1,0,0.3-1.2,0.3-1.2l0.2-0.6l0.6-2.1l0.2-0.6
					c0,0,0.1-0.7,0.3-1.1c0.3-0.3,0.8-0.6,0.8-0.6l1-0.7l1.1-0.8l1.1-0.6l1.1-0.6l1-0.5l1.1-0.5l1-0.4l1.2-0.3l1.1-0.3l1.1-0.2
					l1.1-0.2l1.2-0.2l1.2-0.1h1.1h1.2h1.2l1,0.1h0.2l1.3,0.1l1.2,0.2l1.3,0.2l1.3,0.2l1.3,0.3c0.1,0,1.4,0.3,1.4,0.3l1.4,0.3
					l0.3,0.1l1,0.3l1.4,0.4l1.5,0.3l0.7,0.3l0.7,0.2l1.5,0.4l0.8,0.2l0.7,0.2l1,0.3l0.5-0.4h0.1l1.5,0.4l1.7,0.5l1.7,0.5l1.7,0.5
					l1.7,0.4l1.6,0.4l1.7,0.3l1.6,0.3l1.6,0.3c0.1,0,0.4,0.1,0.4,0.1l1.2,0.2l1.6,0.2l1.5,0.1l1.7,0.1h1.6h1.6l1.5-0.3l1.6-0.1
					c0.1,0,1.6-0.2,1.6-0.2l1.6-0.2l1.5-0.3l1.5-0.4l1.4-0.4l1-0.3l0.6-0.2l1.5-0.5l1.5-0.5l1.5-0.6l1.6-0.7l1.3-0.6l0.2-0.1
					l1.6-0.8l1.5-0.8l1.5-0.9l1.6-0.9l1.6-1l1.7-1l1.7-1.1l1.7-1.1C118.1,12.1,119.5,11.2,119.5,11.2z M40.1,13.7L40.1,13.7
					L40.1,13.7z M37.6,13.7L37.6,13.7L37.6,13.7z M32.6,14.2L32.6,14.2L32.6,14.2z M29,15.2L29,15.2L29,15.2z M91.6,24.1L91.6,24.1
					L91.6,24.1z M17.6,64.3L17.6,64.3L17.6,64.3z M16.2,64.6L16.2,64.6L16.2,64.6z M65.3,86.1L65.3,86.1L65.3,86.1z M96.6,88.3
					L96.6,88.3L96.6,88.3z"/>
			</g>
			<g id="XMLID_422_">
				<g id="XMLID_423_">
					<path id="XMLID_424_" class="st1" d="M126.2,9c0,0-11.2,10.4-28.2,15.6c-11.4,3.5-21.5,2.1-33.5-1.6
						c-14.6-4.3-29.2-7.6-41.3,2.7c-5.6,20-8.3,28.5-14.7,49.8c15.4-13,26.9-5.4,38.1,0.8c9.6,5.2,18.7,12.7,33,14.9
						c17.2,2.6,31.1-7.4,31.1-7.4C117.4,53.8,120,38.9,126.2,9z"/>
				</g>
			</g>
			<path id="XMLID_421_" class="st2" d="M124.4,5.3c-0.1,0-3.1,2.4-7.7,5.5c-4.5,2.9-11.2,7.4-20.4,10.1c-12.5,3.8-24.7,1-34.6-2.1
				c-7.5-2.3-14.8-4.4-21.7-4.6c-8.2-0.3-14.6,2-20.2,6.8c0,0-0.1,0-0.1,0.1c-5.9,21.4-8.8,30.3-16,53.4c1-0.8,1.5-1.2,2.5-2.1
				c6.8-5.6,12.8-7.2,19.5-6.1c5.8,0.9,11.4,4,16.8,7c0.4,0.2,0.6,0.3,1,0.6c1.8,1,3.5,2,5.3,3c8.1,4.7,16.7,10.2,28.7,12.1
				c9.4,1.4,17.7-0.7,22.9-2.7c5.4-2.1,8.7-4.5,8.9-4.6c0-0.1,0-0.1,0.2-0.1c6.9-30.9,9.7-46.3,16-77.1
				C125.1,4.8,124.9,4.9,124.4,5.3z"/>
			<g id="XMLID_236_">
				<path id="XMLID_420_" class="st0" d="M16.4,42.3c-0.4,0.2-0.8,0.5-1.2,0.8c-0.2,0.8-0.3,1.2-0.6,2c0.4-0.3,0.8-0.5,1.2-0.8
					C16.1,43.4,16.2,43,16.4,42.3z"/>
				<path id="XMLID_419_" class="st0" d="M12.9,54.7c-0.5,0.3-0.9,0.5-1.3,0.9c-0.2,0.8-0.4,1.3-0.6,2.1c0.4-0.3,0.8-0.6,1.3-0.9
					C12.5,55.9,12.6,55.5,12.9,54.7z"/>
				<path id="XMLID_418_" class="st0" d="M14.1,50.4c-0.4,0.3-0.8,0.6-1.2,0.9c-0.2,0.8-0.4,1.3-0.7,2.2c0.4-0.3,0.9-0.6,1.3-0.8
					C13.7,51.7,13.8,51.3,14.1,50.4z"/>
				<path id="XMLID_417_" class="st0" d="M15.3,46.3c-0.4,0.3-0.8,0.5-1.2,0.8c-0.2,0.8-0.4,1.2-0.6,2c0.4-0.3,0.8-0.5,1.3-0.8
					C14.9,47.5,15.1,47.1,15.3,46.3z"/>
				<path id="XMLID_416_" class="st0" d="M18.8,33.9c-0.4,0.3-0.8,0.5-1.1,0.7c-0.2,0.8-0.4,1.2-0.5,2c0.4-0.2,0.8-0.5,1.1-0.8
					C18.4,35.1,18.6,34.7,18.8,33.9z"/>
				<path id="XMLID_415_" class="st0" d="M19.9,29.9c-0.4,0.2-0.8,0.5-1.2,0.8c-0.3,0.8-0.3,1.2-0.6,2c0.4-0.3,0.8-0.5,1.2-0.8
					C19.6,31.1,19.7,30.7,19.9,29.9z"/>
				<path id="XMLID_414_" class="st0" d="M17.6,38.1c-0.4,0.3-0.7,0.5-1.1,0.8c-0.3,0.9-0.4,1.3-0.6,2.2c0.4-0.3,0.8-0.6,1.2-0.8
					C17.2,39.4,17.4,39,17.6,38.1z"/>
				<path id="XMLID_413_" class="st0" d="M11.6,58.9c-0.4,0.3-0.8,0.5-1.3,0.9c-0.3,0.9-0.4,1.3-0.6,2.1c0.4-0.3,0.9-0.6,1.3-0.9
					C11.3,60.1,11.4,59.7,11.6,58.9z"/>
				<path id="XMLID_412_" class="st0" d="M12.4,63.7c-0.2,0.8-0.4,1.3-0.6,2.1c0.5-0.2,0.9-0.5,1.4-0.7c0.2-0.9,0.4-1.3,0.6-2.1
					C13.3,63.3,12.9,63.5,12.4,63.7z"/>
				<path id="XMLID_411_" class="st0" d="M17.7,61.8c-0.2,0.8-0.3,1.3-0.6,2.1c0.4-0.1,0.8-0.2,1.3-0.3c0.2-0.8,0.3-1.2,0.6-2.1
					C18.5,61.6,18.1,61.6,17.7,61.8z"/>
				<path id="XMLID_410_" class="st0" d="M10.4,63.1c-0.5,0.3-0.9,0.6-1.3,0.9c-0.3,0.9-0.4,1.3-0.7,2.2c0.5-0.4,1-0.6,1.4-0.9
					C10,64.4,10.2,64,10.4,63.1z"/>
				<path id="XMLID_409_" class="st0" d="M9.7,65.3c-0.3,0.8-0.4,1.3-0.6,2.2c0.5-0.3,1-0.6,1.4-0.9c0.2-0.8,0.4-1.3,0.7-2.1
					C10.7,64.7,10.2,65,9.7,65.3z"/>
				<path id="XMLID_408_" class="st0" d="M15.1,62.6c-0.2,0.8-0.3,1.2-0.5,2.1c0.4-0.2,0.8-0.3,1.3-0.5c0.2-0.8,0.4-1.2,0.5-2.1
					C16,62.2,15.6,62.4,15.1,62.6z"/>
				<path id="XMLID_407_" class="st0" d="M37.8,19.4c0.2-0.8,0.4-1.3,0.5-2.2c-0.4,0-0.8,0-1.2,0c-0.2,0.9-0.3,1.3-0.5,2.2
					C37,19.4,37.4,19.5,37.8,19.4z"/>
				<path id="XMLID_406_" class="st0" d="M40.3,19.6c0.2-0.9,0.3-1.4,0.5-2.3c-0.4,0-0.8,0-1.3-0.1c-0.2,0.9-0.3,1.4-0.5,2.2
					C39.5,19.5,39.9,19.5,40.3,19.6z"/>
				<path id="XMLID_405_" class="st0" d="M35.4,19.5c0.2-0.9,0.3-1.3,0.5-2.2c-0.4,0-0.8,0.1-1.2,0.1c-0.2,0.9-0.3,1.3-0.5,2.2
					C34.6,19.5,35,19.5,35.4,19.5z"/>
				<path id="XMLID_404_" class="st0" d="M42.9,19.8c0.2-0.9,0.3-1.4,0.5-2.3c-0.4-0.1-0.8-0.1-1.3-0.1c-0.2,0.9-0.3,1.4-0.6,2.2
					C42,19.7,42.4,19.8,42.9,19.8z"/>
				<path id="XMLID_403_" class="st0" d="M48.2,20.8c0.2-0.9,0.3-1.4,0.5-2.3c-0.4-0.1-0.9-0.2-1.4-0.3c-0.2,0.9-0.3,1.3-0.5,2.3
					C47.3,20.6,47.8,20.7,48.2,20.8z"/>
				<path id="XMLID_402_" class="st0" d="M45.5,20.3c0.2-0.9,0.3-1.4,0.5-2.3c-0.4-0.1-0.8-0.2-1.3-0.2c-0.2,0.9-0.3,1.3-0.6,2.2
					C44.6,20.1,45.1,20.2,45.5,20.3z"/>
				<path id="XMLID_401_" class="st0" d="M23.7,22.7c0.2-0.8,0.3-1.3,0.5-2.1c-0.4,0.2-0.7,0.4-1.1,0.7c-0.2,0.9-0.3,1.3-0.6,2.1
					C23,23.2,23.3,22.9,23.7,22.7z"/>
				<path id="XMLID_400_" class="st0" d="M26,21.6c0.2-0.9,0.3-1.3,0.5-2.1c-0.4,0.2-0.8,0.3-1.1,0.6c-0.2,0.8-0.3,1.3-0.5,2.1
					C25.3,21.9,25.6,21.8,26,21.6z"/>
				<path id="XMLID_399_" class="st0" d="M22,22.1c-0.4,0.2-0.7,0.5-1.1,0.8c-0.2,0.8-0.3,1.2-0.6,2c0.4-0.3,0.8-0.5,1.1-0.8
					C21.7,23.3,21.8,22.9,22,22.1z"/>
				<path id="XMLID_398_" class="st0" d="M28.3,20.8c0.2-0.8,0.3-1.3,0.5-2.1c-0.3,0.1-0.7,0.3-1.1,0.4c-0.2,0.9-0.3,1.3-0.5,2.1
					C27.6,21,28,20.9,28.3,20.8z"/>
				<path id="XMLID_397_" class="st0" d="M30.6,20.1c0.2-0.9,0.4-1.3,0.5-2.2c-0.4,0.1-0.8,0.2-1.2,0.3c-0.2,0.9-0.3,1.3-0.5,2.2
					C29.9,20.3,30.3,20.2,30.6,20.1z"/>
				<path id="XMLID_396_" class="st0" d="M20.9,26c-0.3,0.3-0.8,0.5-1.1,0.8c-0.2,0.8-0.4,1.2-0.6,1.9c0.4-0.3,0.7-0.5,1.1-0.8
					C20.6,27.2,20.7,26.8,20.9,26z"/>
				<path id="XMLID_395_" class="st0" d="M33.1,19.7c0.2-0.9,0.3-1.3,0.5-2.2c-0.4,0.1-0.8,0.1-1.2,0.2c-0.2,0.9-0.3,1.3-0.5,2.2
					C32.2,19.8,32.6,19.8,33.1,19.7z"/>
				<path id="XMLID_394_" class="st0" d="M27.6,61.5c-0.2,0.8-0.3,1.3-0.5,2.1c0.4,0.1,0.8,0.2,1.2,0.3c0.3-0.8,0.3-1.3,0.5-2.1
					C28.4,61.6,27.9,61.6,27.6,61.5z"/>
				<path id="XMLID_393_" class="st0" d="M64.2,77.9c-0.3,1.1-0.4,1.7-0.7,2.8c0.6,0.2,1,0.4,1.5,0.6c0.3-1.2,0.4-1.7,0.7-2.8
					C65.2,78.4,64.7,78.2,64.2,77.9z"/>
				<path id="XMLID_392_" class="st0" d="M67.2,79.1c-0.3,1.1-0.4,1.7-0.6,2.9c0.4,0.2,0.9,0.4,1.4,0.5c0.3-1.1,0.5-1.7,0.8-2.9
					C68.2,79.5,67.7,79.3,67.2,79.1z"/>
				<path id="XMLID_391_" class="st0" d="M73.1,81c-0.3,1.2-0.4,1.8-0.7,2.9c0.4,0.1,1,0.3,1.5,0.4c0.3-1.2,0.5-1.8,0.8-2.9
					C74.2,81.2,73.6,81.1,73.1,81z"/>
				<path id="XMLID_390_" class="st0" d="M70.1,80.1c-0.3,1.1-0.5,1.8-0.8,2.9c0.5,0.2,1.1,0.4,1.5,0.5c0.3-1.2,0.5-1.8,0.8-2.9
					C71.1,80.4,70.6,80.2,70.1,80.1z"/>
				<path id="XMLID_389_" class="st0" d="M55.8,74c-0.3,1-0.4,1.6-0.6,2.6c0.5,0.3,0.9,0.5,1.4,0.8c0.2-1.1,0.3-1.6,0.6-2.7
					C56.7,74.5,56.2,74.3,55.8,74z"/>
				<path id="XMLID_388_" class="st0" d="M58.5,75.4c-0.2,1.1-0.3,1.6-0.6,2.7c0.5,0.2,0.9,0.5,1.4,0.7c0.2-1.1,0.3-1.6,0.6-2.7
					C59.4,75.8,59,75.6,58.5,75.4z"/>
				<path id="XMLID_387_" class="st0" d="M61.3,76.7c-0.2,1.1-0.4,1.6-0.6,2.8c0.4,0.2,1,0.4,1.4,0.6c0.3-1.1,0.4-1.7,0.6-2.8
					C62.3,77.2,61.8,76.9,61.3,76.7z"/>
				<path id="XMLID_386_" class="st0" d="M89,82.3c-0.3,1.2-0.4,1.9-0.7,3.1c0.6,0,1.1-0.1,1.7-0.2c0.3-1.2,0.5-1.8,0.8-3.1
					C90.3,82.1,89.7,82.2,89,82.3z"/>
				<path id="XMLID_385_" class="st0" d="M20.2,61.3c-0.2,0.8-0.3,1.3-0.6,2.1c0.4,0,0.9-0.1,1.3-0.1c0.2-0.9,0.3-1.2,0.5-2.1
					C21,61.2,20.6,61.2,20.2,61.3z"/>
				<path id="XMLID_384_" class="st0" d="M92.5,81.8c-0.2,1.2-0.5,1.8-0.8,3.1c0.6-0.1,1.2-0.2,1.7-0.3c0.3-1.3,0.5-1.9,0.8-3.2
					C93.7,81.5,93.1,81.7,92.5,81.8z"/>
				<path id="XMLID_383_" class="st0" d="M76.2,81.6c-0.3,1.2-0.4,1.8-0.8,3c0.5,0.1,1,0.2,1.5,0.3c0.3-1.3,0.5-1.8,0.8-3.1
					C77.2,81.8,76.7,81.7,76.2,81.6z"/>
				<path id="XMLID_382_" class="st0" d="M82.5,82.4c-0.3,1.2-0.5,1.8-0.8,3.1c0.6,0,1.1,0,1.6,0c0.3-1.2,0.5-1.8,0.9-3.1
					C83.6,82.5,83,82.4,82.5,82.4z"/>
				<path id="XMLID_381_" class="st0" d="M79.7,82.2c-0.1,0-0.3,0-0.4-0.1c-0.3,1.2-0.5,1.8-0.8,3c0.1,0,0.1,0,0.2,0
					c0.4,0.1,0.9,0.1,1.4,0.2c0.3-1.2,0.5-1.9,0.8-3C80.5,82.2,80.1,82.2,79.7,82.2z"/>
				<path id="XMLID_380_" class="st0" d="M85.8,82.4c-0.3,1.3-0.5,1.9-0.8,3.2c0.6,0,1.2,0,1.7,0c0.3-1.3,0.4-1.9,0.8-3.2
					C86.8,82.4,86.3,82.4,85.8,82.4z"/>
				<path id="XMLID_379_" class="st0" d="M30,62c-0.2,0.8-0.2,1.3-0.5,2.1c0.4,0.1,0.8,0.2,1.2,0.4c0.2-0.9,0.3-1.3,0.5-2.2
					C30.8,62.3,30.5,62.1,30,62z"/>
				<path id="XMLID_378_" class="st0" d="M32.5,62.7c-0.2,0.9-0.3,1.3-0.5,2.2c0.4,0.2,0.8,0.3,1.2,0.4c0.2-0.9,0.3-1.3,0.5-2.2
					C33.3,63,32.9,62.9,32.5,62.7z"/>
				<path id="XMLID_377_" class="st0" d="M22.7,61.1c-0.2,0.8-0.3,1.2-0.5,2c0.4,0,0.8,0,1.2,0c0.2-0.8,0.3-1.2,0.5-2.1
					C23.5,61.1,23.1,61.1,22.7,61.1z"/>
				<path id="XMLID_376_" class="st0" d="M51,21.5c0.2-0.9,0.3-1.4,0.6-2.3c-0.4-0.1-1-0.2-1.4-0.3c-0.3,0.9-0.4,1.4-0.6,2.3
					C50.1,21.2,50.5,21.4,51,21.5z"/>
				<path id="XMLID_375_" class="st0" d="M25.1,61.2c-0.2,0.8-0.3,1.2-0.5,2.1c0.4,0.1,0.9,0.1,1.3,0.1c0.2-0.8,0.3-1.2,0.5-2.1
					C25.9,61.2,25.6,61.2,25.1,61.2z"/>
				<path id="XMLID_374_" class="st0" d="M47.7,69.7c-0.2,1-0.3,1.5-0.5,2.4c0.5,0.2,0.9,0.5,1.3,0.8c0.3-1,0.3-1.5,0.5-2.5
					C48.6,70.2,48.1,70,47.7,69.7z"/>
				<path id="XMLID_373_" class="st0" d="M53,72.5c-0.2,1.1-0.3,1.6-0.6,2.6c0.5,0.3,0.9,0.5,1.4,0.8c0.2-1,0.3-1.5,0.5-2.6
					C54,73.1,53.4,72.8,53,72.5z"/>
				<path id="XMLID_372_" class="st0" d="M37.5,64.6c-0.3,0.9-0.3,1.4-0.5,2.3c0.4,0.2,0.8,0.4,1.3,0.6c0.2-0.9,0.3-1.3,0.5-2.3
					C38.3,65,37.9,64.8,37.5,64.6z"/>
				<path id="XMLID_371_" class="st0" d="M45.4,68.6c-0.1-0.1-0.2-0.1-0.4-0.2c-0.2,1-0.3,1.4-0.4,2.4c0,0,0.1,0,0.1,0.1
					c0.4,0.2,0.8,0.3,1.2,0.6c0.2-1,0.4-1.5,0.5-2.5C46,68.9,45.7,68.8,45.4,68.6z"/>
				<path id="XMLID_370_" class="st0" d="M50.3,71.2c-0.2,1-0.3,1.5-0.5,2.5c0.5,0.3,0.9,0.5,1.3,0.8c0.2-1,0.3-1.5,0.6-2.6
					C51.2,71.6,50.8,71.4,50.3,71.2z"/>
				<path id="XMLID_369_" class="st0" d="M39.9,65.8c-0.2,0.9-0.3,1.4-0.5,2.4c0.4,0.2,0.8,0.4,1.3,0.6c0.2-1,0.3-1.5,0.5-2.4
					C40.8,66.2,40.4,66,39.9,65.8z"/>
				<path id="XMLID_368_" class="st0" d="M43.7,67.7c-0.4-0.2-0.8-0.4-1.2-0.6c-0.3,1-0.3,1.5-0.6,2.4c0.4,0.2,0.7,0.4,1.1,0.5
					l0.2,0.1C43.5,69.2,43.6,68.7,43.7,67.7L43.7,67.7z"/>
				<path id="XMLID_367_" class="st0" d="M34.9,63.6c-0.2,0.9-0.3,1.4-0.5,2.3c0.4,0.2,0.8,0.3,1.2,0.5c0.2-0.9,0.3-1.4,0.5-2.3
					C35.7,63.9,35.4,63.8,34.9,63.6z"/>
				<path id="XMLID_366_" class="st0" d="M79.2,28.4c0.3-0.9,0.4-1.4,0.7-2.4c-0.5-0.1-1-0.1-1.6-0.2c-0.3,1-0.4,1.5-0.7,2.4
					C78.1,28.3,78.6,28.3,79.2,28.4z"/>
				<path id="XMLID_365_" class="st0" d="M82.2,28.6c0.3-1,0.4-1.5,0.7-2.5c-0.5,0-1,0-1.5,0c-0.3,1-0.5,1.5-0.7,2.5
					C81.2,28.5,81.7,28.5,82.2,28.6z"/>
				<path id="XMLID_364_" class="st0" d="M76,28c0.3-1,0.4-1.4,0.7-2.4c-0.5-0.1-1-0.1-1.5-0.2c-0.3,1-0.5,1.4-0.7,2.4
					C75,27.9,75.5,28,76,28z"/>
				<path id="XMLID_363_" class="st0" d="M91.5,27.9c0.3-1.1,0.4-1.6,0.6-2.7c-0.4,0.1-1,0.2-1.5,0.2c-0.2,1.1-0.4,1.7-0.6,2.7
					C90.5,28,91,27.9,91.5,27.9z"/>
				<path id="XMLID_362_" class="st0" d="M72.9,27.5c0.3-0.9,0.4-1.4,0.7-2.4c-0.5-0.1-1-0.2-1.5-0.3c-0.3,1-0.5,1.4-0.8,2.4
					C71.8,27.3,72.4,27.4,72.9,27.5z"/>
				<path id="XMLID_361_" class="st0" d="M85.3,28.5c0.3-1,0.4-1.5,0.7-2.5c-0.5,0-1,0-1.6,0c-0.2,1-0.4,1.6-0.7,2.6
					C84.3,28.6,84.8,28.5,85.3,28.5z"/>
				<path id="XMLID_360_" class="st0" d="M88.5,28.3c0.2-1,0.4-1.6,0.7-2.6c-0.5,0.1-1,0.1-1.6,0.2c-0.2,1-0.4,1.5-0.7,2.6
					C87.4,28.4,87.9,28.4,88.5,28.3z"/>
				<path id="XMLID_359_" class="st0" d="M59.6,24c0.1,0,0.1,0,0.2,0c0.2-0.9,0.4-1.4,0.7-2.3l0,0c-0.5-0.1-1-0.3-1.6-0.4
					c-0.2,0.9-0.3,1.4-0.6,2.3C58.8,23.8,59.2,23.9,59.6,24z"/>
				<path id="XMLID_358_" class="st0" d="M56.8,23.2c0.2-0.9,0.3-1.4,0.6-2.3c-0.5-0.2-1-0.3-1.5-0.4c-0.3,0.9-0.4,1.4-0.7,2.3
					C55.8,22.8,56.4,23,56.8,23.2z"/>
				<path id="XMLID_357_" class="st0" d="M53.9,22.3c0.2-0.9,0.3-1.4,0.6-2.3c-0.5-0.1-1-0.3-1.4-0.4c-0.2,0.9-0.4,1.4-0.6,2.3
					C52.9,22,53.4,22.1,53.9,22.3z"/>
				<path id="XMLID_356_" class="st0" d="M61.9,24.7c0.4,0.1,0.8,0.2,1.1,0.4c0.3-0.9,0.4-1.4,0.8-2.3c-0.3-0.1-0.7-0.2-1-0.3
					c-0.2-0.1-0.4-0.1-0.6-0.2c-0.3,0.9-0.4,1.4-0.7,2.3C61.6,24.6,61.7,24.7,61.9,24.7z"/>
				<path id="XMLID_355_" class="st0" d="M69.7,26.8c0.3-0.9,0.5-1.4,0.7-2.4c-0.6-0.1-1.1-0.2-1.7-0.4c-0.3,0.9-0.4,1.4-0.7,2.4
					C68.6,26.6,69.1,26.7,69.7,26.8z"/>
				<path id="XMLID_354_" class="st0" d="M66.3,26c0.3-0.9,0.4-1.4,0.7-2.3c-0.5-0.2-1.1-0.3-1.7-0.5c-0.3,1-0.5,1.4-0.7,2.3
					C65.2,25.7,65.8,25.8,66.3,26z"/>
				<path id="XMLID_353_" class="st0" d="M119.8,14.7c0.2-1.2,0.4-1.8,0.6-3c-0.5,0.4-1.1,0.8-1.8,1.2c-0.2,1.2-0.3,1.9-0.6,3.1
					C118.7,15.5,119.2,15.1,119.8,14.7z"/>
				<path id="XMLID_352_" class="st0" d="M116.3,17.1c0.2-1.2,0.4-1.8,0.5-3.1c-0.5,0.4-1.1,0.7-1.7,1.1c-0.2,1.2-0.3,1.8-0.6,3.1
					C115.2,17.8,115.7,17.4,116.3,17.1z"/>
				<path id="XMLID_351_" class="st0" d="M100.5,25.4c0.2-1.1,0.3-1.7,0.6-2.8c-0.4,0.2-1,0.3-1.5,0.5c-0.2,1.1-0.3,1.7-0.6,2.8
					C99.6,25.8,100,25.6,100.5,25.4z"/>
				<path id="XMLID_350_" class="st0" d="M97.5,26.4c0.2-1.1,0.4-1.7,0.6-2.8c-0.5,0.2-0.9,0.3-1.5,0.5c-0.2,1.1-0.4,1.7-0.6,2.7
					C96.5,26.7,97,26.6,97.5,26.4z"/>
				<path id="XMLID_349_" class="st0" d="M103.6,24.2c0.2-1.1,0.3-1.7,0.6-2.9c-0.5,0.2-1,0.5-1.5,0.6c-0.3,1.2-0.4,1.7-0.6,2.9
					C102.5,24.6,103.1,24.4,103.6,24.2z"/>
				<path id="XMLID_348_" class="st0" d="M94.4,27.2c0.3-1.1,0.4-1.6,0.7-2.7c-0.5,0.1-1,0.2-1.4,0.3c-0.3,1.1-0.4,1.6-0.7,2.7
					C93.5,27.5,94,27.4,94.4,27.2z"/>
				<path id="XMLID_347_" class="st0" d="M109.7,21.1c0.2-1.2,0.3-1.8,0.6-3c-0.5,0.3-1,0.6-1.6,0.8c-0.2,1.2-0.3,1.8-0.6,3
					C108.7,21.7,109.3,21.4,109.7,21.1z"/>
				<path id="XMLID_346_" class="st0" d="M112.9,19.3c0.2-1.2,0.4-1.8,0.6-3c-0.5,0.3-1,0.7-1.6,1c-0.2,1.2-0.3,1.8-0.5,3
					C111.9,19.9,112.4,19.5,112.9,19.3z"/>
				<path id="XMLID_345_" class="st0" d="M106.6,22.8c0.2-1.2,0.3-1.8,0.6-2.9c-0.5,0.3-1,0.5-1.5,0.7c-0.2,1.2-0.3,1.8-0.6,3
					C105.6,23.3,106.1,23,106.6,22.8z"/>
				<path id="XMLID_344_" class="st0" d="M72.1,24.8c0.3-0.9,0.4-1.4,0.6-2.4c-0.5-0.1-1.1-0.2-1.6-0.3c-0.3,1-0.4,1.4-0.6,2.4
					C71,24.6,71.5,24.7,72.1,24.8z"/>
				<path id="XMLID_343_" class="st0" d="M33.2,65.4c-0.2,0.9-0.3,1.3-0.5,2.3c0.4,0.1,0.8,0.3,1.2,0.5c0.2-0.9,0.3-1.4,0.5-2.3
					C34,65.7,33.6,65.5,33.2,65.4z"/>
				<path id="XMLID_342_" class="st0" d="M15.2,43.1c0.2-0.8,0.4-1.2,0.6-2c-0.4,0.3-0.8,0.6-1.2,0.9c-0.3,0.8-0.4,1.2-0.7,2
					C14.4,43.7,14.8,43.4,15.2,43.1z"/>
				<path id="XMLID_341_" class="st0" d="M38.2,67.5c-0.2,0.9-0.3,1.4-0.5,2.4c0.4,0.2,0.8,0.4,1.2,0.6c0.2-0.9,0.3-1.4,0.5-2.3
					C39,67.9,38.6,67.7,38.2,67.5z"/>
				<path id="XMLID_340_" class="st0" d="M28.3,63.9c-0.2,0.9-0.3,1.3-0.4,2.1c0.4,0.1,0.8,0.2,1.2,0.3c0.2-0.9,0.3-1.3,0.5-2.2
					C29.1,64.1,28.7,64,28.3,63.9z"/>
				<path id="XMLID_339_" class="st0" d="M40.7,68.8c-0.2,0.9-0.3,1.4-0.5,2.3c0.5,0.3,0.9,0.5,1.3,0.7c0.2-1,0.3-1.5,0.5-2.4
					C41.5,69.2,41.1,69,40.7,68.8z"/>
				<path id="XMLID_338_" class="st0" d="M25.9,63.4c-0.2,0.9-0.3,1.3-0.5,2.1c0.4,0,0.8,0.1,1.2,0.2c0.2-0.9,0.3-1.3,0.5-2.2
					C26.7,63.5,26.2,63.5,25.9,63.4z"/>
				<path id="XMLID_337_" class="st0" d="M30.7,64.5c-0.2,0.9-0.3,1.3-0.5,2.1c0.4,0.2,0.8,0.3,1.2,0.5c0.2-0.8,0.3-1.4,0.5-2.2
					C31.5,64.8,31.1,64.7,30.7,64.5z"/>
				<path id="XMLID_336_" class="st0" d="M56.5,77.4c-0.2,1.1-0.4,1.6-0.6,2.7c0.5,0.3,0.9,0.5,1.4,0.7c0.2-1.1,0.4-1.7,0.6-2.8
					C57.4,77.9,57,77.6,56.5,77.4z"/>
				<path id="XMLID_335_" class="st0" d="M51.1,74.4c-0.2,1.1-0.2,1.6-0.5,2.6c0.4,0.3,0.8,0.5,1.3,0.8c0.2-1,0.4-1.6,0.5-2.6
					C52,74.9,51.5,74.7,51.1,74.4z"/>
				<path id="XMLID_334_" class="st0" d="M53.8,75.9c-0.2,1.1-0.4,1.6-0.6,2.7c0.4,0.2,0.9,0.5,1.4,0.8c0.2-1.1,0.3-1.6,0.5-2.7
					C54.7,76.4,54.2,76.2,53.8,75.9z"/>
				<path id="XMLID_333_" class="st0" d="M48.4,73c-0.2,1-0.3,1.5-0.5,2.5c0.4,0.2,0.9,0.5,1.3,0.8c0.2-1,0.3-1.5,0.5-2.6
					C49.3,73.4,48.9,73.2,48.4,73z"/>
				<path id="XMLID_332_" class="st0" d="M43.2,70.1c-0.2,1-0.3,1.5-0.5,2.4c0.4,0.3,0.8,0.5,1.2,0.7l0,0c0.2-1,0.3-1.5,0.6-2.4
					C44.1,70.6,43.7,70.4,43.2,70.1z"/>
				<path id="XMLID_331_" class="st0" d="M45.8,71.5c-0.2,1-0.3,1.5-0.5,2.5c0.4,0.2,0.9,0.4,1.3,0.7c0.2-1,0.3-1.5,0.5-2.5
					C46.7,71.9,46.3,71.7,45.8,71.5z"/>
				<path id="XMLID_330_" class="st0" d="M11,57.7c-0.5,0.3-1,0.7-1.4,1C9.3,59.5,9.2,60,9,60.8c0.4-0.4,0.9-0.7,1.4-1.1
					C10.6,58.9,10.7,58.5,11,57.7z"/>
				<path id="XMLID_329_" class="st0" d="M8.3,66.2c-0.4,0.3-0.9,0.7-1.4,1.1c-0.3,0.9-0.5,1.4-0.7,2.3c0.5-0.4,1-0.8,1.5-1.2
					C7.9,67.5,8.1,67.1,8.3,66.2z"/>
				<path id="XMLID_328_" class="st0" d="M9.7,61.8c-0.5,0.3-0.9,0.7-1.4,1.1c-0.3,0.9-0.4,1.3-0.7,2.2c0.5-0.4,1-0.7,1.5-1.1
					C9.3,63.2,9.4,62.7,9.7,61.8z"/>
				<path id="XMLID_327_" class="st0" d="M14.6,45c-0.4,0.3-0.8,0.6-1.2,1c-0.2,0.9-0.4,1.3-0.6,2.1c0.4-0.4,0.8-0.6,1.3-1
					C14.2,46.3,14.4,45.9,14.6,45z"/>
				<path id="XMLID_326_" class="st0" d="M12.1,53.5c-0.4,0.3-0.9,0.6-1.3,1c-0.2,0.8-0.4,1.2-0.6,2.1c0.4-0.4,0.9-0.7,1.3-1
					C11.8,54.7,12,54.3,12.1,53.5z"/>
				<path id="XMLID_325_" class="st0" d="M13.5,49.1c-0.4,0.3-0.9,0.6-1.3,0.9c-0.2,0.9-0.4,1.3-0.6,2.2c0.4-0.3,0.9-0.7,1.3-0.9
					C13.1,50.4,13.2,50,13.5,49.1z"/>
				<path id="XMLID_324_" class="st0" d="M7.7,68.4c-0.3,0.9-0.4,1.3-0.7,2.2c0.5-0.3,0.9-0.7,1.4-1c0.3-0.9,0.4-1.3,0.7-2.2
					C8.7,67.8,8.2,68.1,7.7,68.4z"/>
				<path id="XMLID_323_" class="st0" d="M18.4,63.6c-0.2,0.8-0.3,1.2-0.5,2.1c0.4-0.1,0.8-0.2,1.2-0.3c0.2-0.8,0.3-1.2,0.5-2.1
					C19.2,63.4,18.8,63.5,18.4,63.6z"/>
				<path id="XMLID_322_" class="st0" d="M15.9,64.2c-0.3,0.8-0.4,1.3-0.6,2.1c0.4-0.1,0.9-0.2,1.3-0.3c0.2-0.8,0.3-1.2,0.5-2
					C16.7,64,16.2,64.1,15.9,64.2z"/>
				<path id="XMLID_321_" class="st0" d="M20.9,63.2c-0.2,0.8-0.3,1.3-0.5,2.1c0.5,0,0.9,0,1.3,0c0.2-0.9,0.3-1.3,0.5-2.1
					C21.7,63.2,21.3,63.2,20.9,63.2z"/>
				<path id="XMLID_320_" class="st0" d="M23.4,63.2c-0.2,0.9-0.3,1.2-0.5,2.1c0.4,0,0.8,0,1.2,0.1c0.2-0.8,0.3-1.3,0.5-2.1
					C24.2,63.2,23.8,63.2,23.4,63.2z"/>
				<path id="XMLID_319_" class="st0" d="M10.5,66.6c-0.3,0.9-0.4,1.3-0.6,2.2c0.5-0.3,1-0.6,1.4-0.8c0.2-0.9,0.4-1.3,0.6-2.1
					C11.4,66.1,11,66.3,10.5,66.6z"/>
				<path id="XMLID_318_" class="st0" d="M13.2,65.2c-0.2,0.9-0.3,1.3-0.5,2.1c0.4-0.2,0.9-0.4,1.3-0.6c0.2-0.9,0.4-1.2,0.6-2.1
					C14.1,64.8,13.7,65,13.2,65.2z"/>
				<path id="XMLID_317_" class="st0" d="M35.7,66.4c-0.2,0.9-0.3,1.4-0.5,2.2c0.4,0.2,0.9,0.4,1.3,0.6c0.2-0.9,0.3-1.4,0.5-2.3
					C36.5,66.8,36.1,66.6,35.7,66.4z"/>
				<path id="XMLID_316_" class="st0" d="M111.6,63.1c1.1-0.7,1.7-1.2,1.8-1.3c0.3-1.3,0.4-1.9,0.7-3.2c-0.2,0.1-0.8,0.6-1.9,1.3
					C112,61.2,111.9,61.8,111.6,63.1z"/>
				<path id="XMLID_315_" class="st0" d="M113,56.8c1.1-0.7,1.7-1.2,1.8-1.3c0.3-1.3,0.4-1.9,0.7-3.2c0,0-0.7,0.5-1.8,1.3
					C113.4,54.9,113.3,55.5,113,56.8z"/>
				<path id="XMLID_314_" class="st0" d="M114.3,50.4c1.1-0.8,1.8-1.3,1.8-1.3c0.3-1.2,0.4-1.8,0.7-3.1c-0.1,0.1-0.7,0.6-1.8,1.4
					C114.7,48.5,114.6,49.2,114.3,50.4z"/>
				<path id="XMLID_313_" class="st0" d="M109.9,77.8c-0.1,0.1-0.8,0.5-1.9,1.2c-0.3,1.3-0.5,1.9-0.8,3.3c1.1-0.7,1.8-1.1,1.9-1.2
					C109.4,79.8,109.6,79.1,109.9,77.8z"/>
				<path id="XMLID_312_" class="st0" d="M104.3,81c-0.3,1.3-0.5,2-0.8,3.3c0.7-0.3,1.3-0.6,1.9-0.9c0.3-1.3,0.4-2,0.7-3.3
					C105.6,80.4,104.9,80.7,104.3,81z"/>
				<path id="XMLID_311_" class="st0" d="M110.2,69.4c1.1-0.7,1.8-1.2,1.9-1.3c0.3-1.2,0.4-1.9,0.7-3.1c-0.1,0.1-0.8,0.5-1.8,1.2
					C110.6,67.5,110.4,68.1,110.2,69.4z"/>
				<path id="XMLID_310_" class="st0" d="M108.7,75.8c1.1-0.7,1.8-1.1,1.9-1.2c0.3-1.3,0.4-1.9,0.7-3.2c-0.1,0.1-0.7,0.5-1.9,1.2
					C109.2,73.9,109,74.5,108.7,75.8z"/>
				<path id="XMLID_309_" class="st0" d="M115.6,44.2c1.1-0.8,1.8-1.3,1.9-1.4c0.2-1.3,0.3-1.9,0.6-3.1c-0.1,0.1-0.7,0.6-1.8,1.4
					C116,42.3,115.8,42.9,115.6,44.2z"/>
				<path id="XMLID_308_" class="st0" d="M120.5,19.4c0.8-0.6,1.4-1.1,1.8-1.4c0.3-1.2,0.4-1.8,0.6-3c-0.3,0.2-0.9,0.7-1.8,1.4
					C120.8,17.6,120.7,18.2,120.5,19.4z"/>
				<path id="XMLID_307_" class="st0" d="M124.1,8.9c0,0-0.7,0.5-1.9,1.4c-0.2,1.2-0.4,1.8-0.6,3c1.2-0.9,1.9-1.5,1.9-1.5l0,0
					C123.7,10.7,123.8,10.1,124.1,8.9L124.1,8.9z"/>
				<path id="XMLID_306_" class="st0" d="M119.3,25.6c0.9-0.6,1.5-1.1,1.8-1.4c0.3-1.2,0.4-1.8,0.6-3c-0.3,0.3-1,0.7-1.8,1.3
					C119.6,23.7,119.6,24.3,119.3,25.6z"/>
				<path id="XMLID_305_" class="st0" d="M116.9,38c1.1-0.8,1.7-1.3,1.8-1.4c0.3-1.3,0.4-1.9,0.6-3.1c-0.3,0.2-0.9,0.7-1.8,1.3
					C117.2,36.1,117.1,36.7,116.9,38z"/>
				<path id="XMLID_304_" class="st0" d="M118.1,31.7c0.8-0.6,1.4-1.1,1.8-1.4c0.2-1.2,0.3-1.8,0.6-3.1c-0.4,0.3-1,0.7-1.8,1.3
					C118.5,29.8,118.4,30.4,118.1,31.7z"/>
				<path id="XMLID_303_" class="st0" d="M74.5,84.4c-0.2,0-0.4-0.1-0.6-0.1c-0.3,1.2-0.4,1.8-0.8,3c0.6,0.1,1.1,0.2,1.5,0.3
					c0.3-1.3,0.5-1.8,0.8-3.1C75.1,84.6,74.8,84.5,74.5,84.4z"/>
				<path id="XMLID_302_" class="st0" d="M77,84.9c-0.3,1.2-0.4,1.8-0.8,3c0.5,0.1,1,0.2,1.5,0.3l0,0c0.3-1.3,0.5-1.9,0.7-3.1
					C78,85.1,77.5,85,77,84.9z"/>
				<path id="XMLID_301_" class="st0" d="M70.8,83.4c-0.2,1.2-0.4,1.8-0.6,3c0.5,0.2,1,0.3,1.5,0.5c0.2-1.2,0.4-1.8,0.7-3
					C71.8,83.7,71.4,83.6,70.8,83.4z"/>
				<path id="XMLID_300_" class="st0" d="M67.9,82.5c-0.3,1.2-0.4,1.8-0.7,3c0.5,0.2,0.9,0.4,1.4,0.5c0.2-1.2,0.4-1.8,0.7-3
					C68.8,82.8,68.4,82.7,67.9,82.5z"/>
				<path id="XMLID_299_" class="st0" d="M62.1,80.1c-0.3,1.2-0.4,1.7-0.6,2.9c0.5,0.2,0.9,0.4,1.4,0.6c0.3-1.2,0.4-1.7,0.6-2.9
					C63.1,80.6,62.6,80.4,62.1,80.1z"/>
				<path id="XMLID_298_" class="st0" d="M65,81.4c-0.3,1.1-0.4,1.7-0.6,2.9c0.4,0.2,1,0.4,1.5,0.6c0.2-1.1,0.4-1.8,0.7-2.9
					C66,81.8,65.5,81.6,65,81.4z"/>
				<path id="XMLID_297_" class="st0" d="M59.3,78.8c-0.3,1.1-0.4,1.7-0.6,2.8c0.4,0.2,0.9,0.5,1.4,0.7c0.3-1.1,0.4-1.7,0.6-2.8
					C60.3,79.2,59.7,79.1,59.3,78.8z"/>
				<path id="XMLID_296_" class="st0" d="M93.4,84.6c-0.3,1.3-0.5,1.9-0.8,3.2c0.6-0.1,1.2-0.3,1.7-0.4c0.3-1.3,0.5-1.9,0.8-3.2
					C94.6,84.3,94,84.5,93.4,84.6z"/>
				<path id="XMLID_295_" class="st0" d="M100.6,82.6c-0.3,1.3-0.5,1.9-0.8,3.2c0.6-0.2,1.2-0.5,1.8-0.7c0.3-1.3,0.5-1.9,0.8-3.2
					C101.8,82.1,101.2,82.3,100.6,82.6z"/>
				<path id="XMLID_294_" class="st0" d="M90,85.2c-0.3,1.3-0.5,1.9-0.8,3.2c0.6-0.1,1.1-0.1,1.7-0.2c0.3-1.3,0.5-1.9,0.8-3.2
					C91.1,85,90.6,85.1,90,85.2z"/>
				<path id="XMLID_293_" class="st0" d="M96.9,83.7c-0.3,1.3-0.4,1.9-0.7,3.2c0.6-0.2,1.2-0.4,1.8-0.5c0.3-1.3,0.4-2,0.7-3.2
					C98.2,83.4,97.6,83.6,96.9,83.7z"/>
				<path id="XMLID_292_" class="st0" d="M80.1,85.3c-0.3,1.2-0.5,1.9-0.8,3.1c0.5,0,1.1,0.1,1.5,0.1c0.3-1.3,0.5-1.9,0.8-3.1
					C81.1,85.4,80.6,85.4,80.1,85.3z"/>
				<path id="XMLID_291_" class="st0" d="M83.3,85.5c-0.3,1.3-0.5,1.9-0.8,3.1c0.6,0,1.1,0,1.7,0c0.3-1.3,0.4-1.9,0.7-3.1
					C84.4,85.6,83.9,85.5,83.3,85.5z"/>
				<path id="XMLID_290_" class="st0" d="M86.6,85.5c-0.3,1.2-0.5,1.9-0.8,3.1c0.6,0,1.1-0.1,1.7-0.1c0.3-1.2,0.4-1.9,0.8-3.2
					C87.8,85.4,87.2,85.5,86.6,85.5z"/>
				<path id="XMLID_289_" class="st0" d="M102.6,22c0.3-1.1,0.4-1.7,0.6-2.9c-0.5,0.2-1,0.4-1.5,0.6c-0.2,1.1-0.3,1.7-0.6,2.9
					C101.7,22.4,102.1,22.2,102.6,22z"/>
				<path id="XMLID_288_" class="st0" d="M105.7,20.6c0.2-1.1,0.3-1.8,0.6-2.9c-0.5,0.3-1,0.5-1.5,0.8c-0.2,1.1-0.4,1.7-0.6,2.9
					C104.7,21.1,105.2,20.8,105.7,20.6z"/>
				<path id="XMLID_287_" class="st0" d="M111.9,17.2c0.2-1.2,0.3-1.8,0.5-3c-0.6,0.3-1.1,0.6-1.6,0.9c-0.2,1.2-0.3,1.8-0.6,3
					C110.9,17.9,111.4,17.5,111.9,17.2z"/>
				<path id="XMLID_286_" class="st0" d="M122.2,10.3c0.3-1.2,0.4-1.8,0.6-3.1c-0.5,0.4-1.2,0.9-1.8,1.4c-0.2,1.2-0.3,1.8-0.6,3
					C121,11.2,121.7,10.7,122.2,10.3z"/>
				<path id="XMLID_285_" class="st0" d="M118.6,12.9c0.2-1.2,0.3-1.8,0.5-3c-0.5,0.3-1.1,0.8-1.8,1.2c-0.2,1.2-0.3,1.8-0.5,3
					C117.4,13.7,118.1,13.3,118.6,12.9z"/>
				<path id="XMLID_284_" class="st0" d="M115.2,15.2c0.2-1.2,0.3-1.8,0.5-3c-0.5,0.4-1.1,0.7-1.7,1.1c-0.2,1.2-0.3,1.8-0.5,3
					C114.1,15.9,114.6,15.5,115.2,15.2z"/>
				<path id="XMLID_283_" class="st0" d="M108.7,19c0.2-1.2,0.4-1.8,0.5-3c-0.4,0.3-1,0.6-1.5,0.8c-0.2,1.2-0.3,1.8-0.5,3
					C107.7,19.6,108.3,19.3,108.7,19z"/>
				<path id="XMLID_282_" class="st0" d="M90.6,25.4c0.3-1,0.5-1.5,0.7-2.6c-0.5,0.1-1.1,0.2-1.5,0.2c-0.3,1-0.4,1.6-0.7,2.6
					C89.7,25.7,90.2,25.6,90.6,25.4z"/>
				<path id="XMLID_281_" class="st0" d="M87.6,25.9c0.3-1,0.4-1.5,0.7-2.6c-0.5,0.1-1.1,0.1-1.6,0.2c-0.3,1-0.4,1.6-0.6,2.6
					C86.5,26,87.1,25.9,87.6,25.9z"/>
				<path id="XMLID_280_" class="st0" d="M84.5,26c0.3-1,0.4-1.5,0.7-2.5c-0.6,0-1,0-1.6,0.1c-0.2,1-0.4,1.5-0.7,2.5
					C83.4,26.1,84,26.1,84.5,26z"/>
				<path id="XMLID_279_" class="st0" d="M99.3,23.3c0.1,0,0.3-0.1,0.4-0.1c0.3-1.1,0.4-1.7,0.6-2.8c-0.5,0.2-1,0.4-1.5,0.5
					c-0.2,1.1-0.3,1.7-0.6,2.8C98.5,23.5,98.9,23.4,99.3,23.3z"/>
				<path id="XMLID_278_" class="st0" d="M93.7,24.9c0.2-1.1,0.3-1.6,0.6-2.7c-0.5,0.1-1,0.2-1.4,0.3c-0.3,1.1-0.4,1.6-0.7,2.7
					C92.7,25.1,93.2,25,93.7,24.9z"/>
				<path id="XMLID_277_" class="st0" d="M95.6,24.4c0.3-0.1,0.7-0.2,1-0.3c0.3-1.1,0.4-1.6,0.6-2.7c-0.3,0.1-0.6,0.2-0.9,0.2
					c-0.2,0.1-0.4,0.1-0.7,0.2c-0.2,1.1-0.3,1.7-0.6,2.7C95.3,24.5,95.5,24.5,95.6,24.4z"/>
				<path id="XMLID_276_" class="st0" d="M113.2,48.5c0.7-0.5,1.3-0.9,1.8-1.2c0.3-1.3,0.4-1.9,0.6-3.2c-0.5,0.4-1.1,0.8-1.8,1.2
					C113.5,46.6,113.4,47.3,113.2,48.5z"/>
				<path id="XMLID_275_" class="st0" d="M119.2,17.7c0.7-0.5,1.3-0.9,1.8-1.3c0.2-1.2,0.3-1.8,0.6-3c-0.5,0.4-1.1,0.8-1.8,1.3
					C119.5,15.9,119.4,16.5,119.2,17.7z"/>
				<path id="XMLID_274_" class="st0" d="M107.6,73.7c0.7-0.4,1.4-0.8,1.8-1.1c0.3-1.3,0.5-1.9,0.7-3.2c-0.5,0.3-1.1,0.7-1.8,1.1
					C108,71.8,107.9,72.4,107.6,73.7z"/>
				<path id="XMLID_273_" class="st0" d="M110.4,61.1c0.7-0.4,1.3-0.8,1.8-1.1c0.2-1.3,0.4-1.9,0.7-3.1c-0.5,0.4-1.1,0.7-1.8,1.2
					C110.8,59.2,110.7,59.8,110.4,61.1z"/>
				<path id="XMLID_272_" class="st0" d="M109,67.4c0.7-0.4,1.3-0.8,1.8-1.1c0.3-1.3,0.4-1.9,0.7-3.1c-0.5,0.3-1.1,0.7-1.9,1.1
					C109.5,65.5,109.3,66.1,109,67.4z"/>
				<path id="XMLID_271_" class="st0" d="M106.1,80.1c0.8-0.4,1.4-0.7,1.9-1c0.2-1.3,0.4-1.9,0.7-3.2c-0.6,0.3-1.2,0.7-1.9,1.1
					C106.5,78.1,106.4,78.8,106.1,80.1z"/>
				<path id="XMLID_270_" class="st0" d="M99.5,80c-0.3,1.3-0.5,2-0.8,3.2c0.7-0.2,1.3-0.4,1.9-0.6c0.3-1.3,0.4-1.9,0.7-3.2
					C100.7,79.6,100.2,79.8,99.5,80z"/>
				<path id="XMLID_269_" class="st0" d="M103.2,78.6c-0.3,1.2-0.5,1.9-0.8,3.2c0.6-0.3,1.3-0.6,1.9-0.9c0.3-1.3,0.4-1.9,0.7-3.2
					C104.4,78.1,103.8,78.3,103.2,78.6z"/>
				<path id="XMLID_268_" class="st0" d="M115.6,36.1c0.7-0.5,1.3-0.9,1.8-1.3c0.3-1.2,0.4-1.9,0.7-3.1c-0.6,0.4-1.1,0.8-1.8,1.2
					C116.1,34.2,115.9,34.8,115.6,36.1z"/>
				<path id="XMLID_267_" class="st0" d="M116.9,29.9c0.7-0.5,1.3-0.9,1.8-1.3c0.2-1.2,0.4-1.8,0.6-3c-0.5,0.4-1.1,0.8-1.8,1.2
					C117.3,28,117.2,28.6,116.9,29.9z"/>
				<path id="XMLID_266_" class="st0" d="M118.1,23.8c0.7-0.5,1.3-0.9,1.8-1.3c0.3-1.2,0.4-1.8,0.6-3c-0.5,0.4-1.2,0.8-1.8,1.3
					C118.4,22,118.3,22.5,118.1,23.8z"/>
				<path id="XMLID_265_" class="st0" d="M96,81c-0.3,1.3-0.5,1.9-0.8,3.2c0.7-0.2,1.2-0.3,1.8-0.5c0.3-1.3,0.5-1.9,0.8-3.2
					C97.2,80.7,96.6,80.9,96,81z"/>
				<path id="XMLID_264_" class="st0" d="M114.4,42.3c0.7-0.4,1.3-0.9,1.8-1.2c0.3-1.2,0.4-1.8,0.6-3.1c-0.5,0.4-1.1,0.8-1.8,1.3
					C114.8,40.5,114.7,41.1,114.4,42.3z"/>
				<path id="XMLID_263_" class="st0" d="M111.8,54.7c0.7-0.4,1.3-0.8,1.8-1.2c0.3-1.3,0.4-1.9,0.7-3.2c-0.5,0.4-1.1,0.7-1.8,1.2
					C112.2,52.9,112.1,53.5,111.8,54.7z"/>
				<path id="XMLID_262_" class="st0" d="M30,18.2c0.2-0.8,0.3-1.3,0.5-2.1c-0.4,0.1-0.8,0.3-1.2,0.4c-0.2,0.9-0.3,1.2-0.5,2.1
					C29.3,18.5,29.6,18.4,30,18.2z"/>
				<path id="XMLID_261_" class="st0" d="M32.4,17.7c0.2-0.8,0.3-1.3,0.5-2.1c-0.4,0-0.8,0.1-1.2,0.2c-0.2,0.9-0.3,1.3-0.5,2.2
					C31.6,17.9,32,17.8,32.4,17.7z"/>
				<path id="XMLID_260_" class="st0" d="M27.7,19c0.2-0.9,0.3-1.3,0.5-2.1c-0.4,0.2-0.8,0.3-1.1,0.5c-0.3,0.8-0.3,1.3-0.5,2.1
					C27,19.3,27.4,19.2,27.7,19z"/>
				<path id="XMLID_259_" class="st0" d="M39.6,17.2c0.2-0.9,0.3-1.3,0.5-2.3c-0.4,0-0.8,0-1.2,0c-0.2,0.9-0.3,1.3-0.5,2.2
					C38.8,17.2,39.2,17.2,39.6,17.2z"/>
				<path id="XMLID_258_" class="st0" d="M25.4,20c0.2-0.9,0.3-1.3,0.5-2.1c-0.4,0.2-0.8,0.4-1.1,0.6c-0.2,0.8-0.3,1.2-0.6,2.1
					C24.7,20.4,25,20.2,25.4,20z"/>
				<path id="XMLID_257_" class="st0" d="M37.1,17.2c0.2-0.9,0.3-1.3,0.5-2.2c-0.4,0.1-0.8,0.1-1.2,0.1c-0.2,0.9-0.3,1.4-0.5,2.2
					C36.3,17.2,36.8,17.2,37.1,17.2z"/>
				<path id="XMLID_256_" class="st0" d="M34.7,17.4c0.2-0.8,0.3-1.3,0.5-2.2c-0.4,0.1-0.8,0.1-1.2,0.2c-0.2,0.9-0.3,1.3-0.5,2.2
					C33.9,17.5,34.3,17.4,34.7,17.4z"/>
				<path id="XMLID_255_" class="st0" d="M17.6,34.6c0.2-0.8,0.3-1.2,0.5-2c-0.4,0.3-0.8,0.6-1.1,0.9c-0.3,0.8-0.4,1.2-0.6,2
					C16.8,35.2,17.2,34.9,17.6,34.6z"/>
				<path id="XMLID_254_" class="st0" d="M18.8,30.7c0.2-0.8,0.3-1.2,0.5-2c-0.4,0.3-0.8,0.6-1.2,0.9c-0.2,0.8-0.3,1.2-0.5,2
					C18,31.3,18.3,31,18.8,30.7z"/>
				<path id="XMLID_253_" class="st0" d="M81.4,26c0.3-1,0.4-1.5,0.7-2.5c-0.5,0-1,0-1.6,0c-0.2,1-0.4,1.5-0.6,2.5
					C80.3,26,80.8,26,81.4,26z"/>
				<path id="XMLID_252_" class="st0" d="M23.2,21.3c0.2-0.9,0.3-1.3,0.6-2.1c-0.4,0.3-0.8,0.5-1.2,0.8c-0.2,0.8-0.3,1.2-0.5,2.1
					C22.4,21.8,22.8,21.6,23.2,21.3z"/>
				<path id="XMLID_251_" class="st0" d="M19.9,26.8c0.2-0.7,0.3-1.1,0.5-1.9c-0.4,0.3-0.8,0.6-1.1,0.9c-0.2,0.7-0.3,1.1-0.5,1.9
					C19.1,27.4,19.4,27.1,19.9,26.8z"/>
				<path id="XMLID_250_" class="st0" d="M20.9,22.9c0.2-0.8,0.3-1.2,0.5-2.1c-0.4,0.3-0.8,0.6-1.1,0.9l0,0c-0.2,0.8-0.3,1.2-0.5,2
					C20.1,23.5,20.5,23.1,20.9,22.9z"/>
				<path id="XMLID_249_" class="st0" d="M16.4,38.9c0.2-0.9,0.4-1.3,0.6-2.3c-0.4,0.3-0.8,0.6-1.2,1c-0.2,0.9-0.4,1.3-0.6,2.2
					C15.6,39.5,16,39.2,16.4,38.9z"/>
				<path id="XMLID_248_" class="st0" d="M65.4,23.2c0.3-0.9,0.5-1.4,0.7-2.3c-0.6-0.2-1.1-0.3-1.7-0.5c-0.3,1-0.4,1.4-0.7,2.3
					C64.3,22.9,64.9,23.1,65.4,23.2z"/>
				<path id="XMLID_247_" class="st0" d="M68.8,24.1c0.3-0.9,0.4-1.4,0.8-2.3c-0.6-0.1-1.1-0.3-1.7-0.4c-0.3,0.9-0.5,1.4-0.8,2.3
					C67.7,23.8,68.3,24,68.8,24.1z"/>
				<path id="XMLID_246_" class="st0" d="M62.1,22.3c0.3-0.9,0.4-1.4,0.7-2.3c-0.5-0.1-0.9-0.3-1.4-0.4c-0.1,0-0.1,0-0.3,0
					c-0.2,1-0.4,1.4-0.6,2.3C61,21.9,61.5,22.1,62.1,22.3z"/>
				<path id="XMLID_245_" class="st0" d="M42.1,17.4c0.2-0.9,0.3-1.3,0.5-2.3C42.2,15,41.7,15,41.3,15c-0.2,0.9-0.3,1.3-0.5,2.2
					C41.3,17.3,41.7,17.4,42.1,17.4z"/>
				<path id="XMLID_244_" class="st0" d="M78.3,25.8c0.3-1,0.4-1.4,0.7-2.4c-0.5-0.1-1-0.1-1.5-0.2c-0.3,1-0.4,1.4-0.7,2.4
					C77.2,25.7,77.8,25.7,78.3,25.8z"/>
				<path id="XMLID_243_" class="st0" d="M75.2,25.4c0.2-0.9,0.4-1.4,0.7-2.4c-0.6-0.1-1.1-0.1-1.6-0.3c-0.3,1-0.4,1.5-0.7,2.4
					C74.1,25.2,74.6,25.3,75.2,25.4z"/>
				<path id="XMLID_242_" class="st0" d="M47.4,18.3c0.2-0.9,0.3-1.4,0.6-2.3c-0.5-0.1-0.9-0.2-1.3-0.2c-0.2,0.9-0.4,1.3-0.6,2.3
					C46.6,18.1,47,18.2,47.4,18.3z"/>
				<path id="XMLID_241_" class="st0" d="M58.9,21.3c0.3-1,0.4-1.4,0.7-2.3c-0.5-0.2-1-0.3-1.5-0.5c-0.2,0.9-0.4,1.4-0.6,2.3
					C58,21,58.5,21.2,58.9,21.3z"/>
				<path id="XMLID_240_" class="st0" d="M44.8,17.8c0.2-0.9,0.3-1.4,0.5-2.3c-0.4,0-0.9-0.1-1.3-0.2c-0.3,0.9-0.4,1.4-0.6,2.3
					C43.9,17.6,44.3,17.7,44.8,17.8z"/>
				<path id="XMLID_239_" class="st0" d="M50.2,18.8c0.2-0.9,0.3-1.4,0.6-2.3c-0.5-0.1-1-0.2-1.5-0.3c-0.2,0.9-0.3,1.3-0.5,2.3
					C49.3,18.6,49.7,18.7,50.2,18.8z"/>
				<path id="XMLID_238_" class="st0" d="M56,20.4c0.2-0.9,0.3-1.4,0.6-2.4c-0.5-0.2-1.1-0.3-1.5-0.4c-0.2,1-0.3,1.4-0.6,2.3
					C55,20.1,55.5,20.2,56,20.4z"/>
				<path id="XMLID_237_" class="st0" d="M53,19.6c0.2-0.9,0.4-1.4,0.6-2.3c-0.5-0.1-1-0.3-1.5-0.4c-0.2,0.9-0.4,1.4-0.6,2.3
					C52.1,19.3,52.6,19.4,53,19.6z"/>
			</g>
			<path id="XMLID_235_" class="st0" d="M118,16c-0.5,0.4-1.1,0.8-1.7,1.2c-0.6,0.3-1.1,0.7-1.7,1.1c-0.5,0.3-1,0.7-1.6,1
				c-0.5,0.3-1,0.6-1.6,1c-0.5,0.3-1.1,0.6-1.6,0.9c-0.5,0.3-1.1,0.5-1.6,0.8s-1,0.5-1.5,0.8s-1,0.5-1.5,0.8c-0.5,0.2-1,0.4-1.5,0.7
				c-0.5,0.2-1,0.4-1.5,0.6c-0.5,0.2-1,0.4-1.5,0.6c-0.5,0.2-1,0.3-1.5,0.5c-0.2,0.1-0.4,0.2-0.6,0.2c-0.3,0.1-0.6,0.2-0.9,0.3
				c-0.5,0.2-1,0.3-1.5,0.4c-0.4,0.1-0.8,0.2-1.2,0.4c-0.1,0-0.2,0-0.3,0c-0.4,0.2-0.9,0.2-1.4,0.3s-1,0.2-1.5,0.3s-1,0.2-1.5,0.2
				c-0.5,0.1-1,0.1-1.6,0.2c-0.5,0.1-1.1,0.1-1.6,0.1c-0.5,0.1-1.1,0.1-1.6,0.1s-1,0-1.6,0.1c-0.5,0-1.1,0-1.6,0s-1,0-1.5-0.1
				c-0.5,0-1.1-0.1-1.6-0.1c-0.6,0-1.1-0.1-1.6-0.1c-0.5-0.1-1.1-0.1-1.6-0.2c-0.5-0.1-1-0.1-1.5-0.2c-0.5-0.1-1.1-0.2-1.6-0.3
				s-1-0.2-1.6-0.3c-0.5-0.1-1-0.2-1.6-0.4c-0.6-0.1-1-0.3-1.6-0.4c-0.6-0.2-1.2-0.3-1.7-0.5c-0.5-0.1-1.1-0.3-1.6-0.4
				c-0.6-0.2-1.2-0.3-1.7-0.5c-0.4-0.2-0.7-0.3-1.1-0.4c-0.2,0-0.3-0.1-0.5-0.1c-0.5-0.2-1-0.3-1.6-0.5c-0.1,0-0.2,0-0.2,0
				c-0.5-0.2-0.9-0.3-1.3-0.4c-0.5-0.1-1.1-0.3-1.5-0.4c-0.5-0.2-1-0.4-1.5-0.5s-1-0.3-1.5-0.4c-0.5-0.2-1-0.3-1.4-0.4
				c-0.5-0.1-1-0.3-1.4-0.4c-0.5-0.1-0.9-0.3-1.5-0.3c-0.4-0.1-0.9-0.3-1.3-0.4c-0.5-0.1-0.9-0.2-1.3-0.3c-0.5-0.1-0.9-0.2-1.4-0.2
				c-0.5-0.1-0.9-0.2-1.3-0.2C43.9,20.1,43.4,20,43,20c-0.5-0.1-0.9-0.1-1.3-0.2c-0.4,0-0.8-0.1-1.2-0.1c-0.5,0-0.9-0.1-1.2-0.1
				c-0.4,0-0.9,0-1.3,0c-0.4,0.1-0.8,0-1.2,0.1c-0.4,0-0.8,0-1.2,0s-0.8,0-1.2,0.1c-0.4,0-0.8,0-1.2,0.1C32.7,20,32.4,20,32,20.1
				c-0.4,0.1-0.8,0.1-1.2,0.2c-0.4,0.1-0.7,0.2-1.2,0.3c-0.4,0.1-0.8,0.2-1.2,0.3s-0.7,0.3-1.1,0.4c-0.4,0.1-0.8,0.3-1.2,0.5
				s-0.7,0.3-1.2,0.5c-0.4,0.2-0.8,0.4-1.2,0.6c-0.4,0.2-0.7,0.5-1.1,0.7c-0.4,0.2-0.8,0.5-1.1,0.7c-0.2,0.8-0.3,1.1-0.5,1.9
				c-0.2,0.7-0.3,1.1-0.5,1.9c-0.2,0.8-0.3,1.2-0.5,2c-0.3,0.8-0.3,1.2-0.6,2c-0.2,0.8-0.3,1.2-0.6,2c-0.2,0.8-0.3,1.2-0.5,1.9
				c-0.3,0.9-0.4,1.3-0.7,2.2c-0.2,0.9-0.4,1.3-0.6,2.2c-0.2,0.8-0.4,1.2-0.6,2c-0.2,0.8-0.3,1.2-0.6,2c-0.2,0.8-0.3,1.2-0.6,2
				c-0.2,0.8-0.3,1.2-0.6,2c-0.2,0.9-0.4,1.3-0.6,2.1c-0.3,0.9-0.4,1.3-0.7,2.2c-0.2,0.8-0.3,1.2-0.5,2c-0.2,0.9-0.4,1.2-0.7,2.1
				c-0.2,0.9-0.3,1.3-0.6,2.1c-0.2,0.8-0.4,1.2-0.6,2.1c-0.3,0.9-0.4,1.3-0.6,2.2c-0.2,0.9-0.4,1.3-0.6,2.2c0.5-0.3,0.9-0.6,1.4-0.8
				c0.4-0.3,0.8-0.5,1.3-0.7c0.5-0.3,0.9-0.5,1.4-0.7c0.4-0.2,0.9-0.3,1.3-0.5c0.4-0.2,0.8-0.3,1.2-0.5c0.4-0.1,0.8-0.2,1.3-0.4
				c0.4-0.1,0.8-0.2,1.3-0.3c0.4-0.1,0.8-0.2,1.3-0.2c0.4-0.1,0.8-0.1,1.3-0.1c0.4,0,0.8,0,1.3,0c0.4,0,0.8,0,1.2,0s0.9,0,1.2,0.1
				c0.4,0,0.8,0,1.3,0.1c0.4,0,0.8,0.1,1.2,0.2s0.8,0.2,1.3,0.2c0.4,0.1,0.8,0.2,1.2,0.3c0.4,0.1,0.8,0.2,1.2,0.3
				c0.4,0.1,0.8,0.2,1.3,0.4c0.4,0.2,0.8,0.3,1.2,0.4c0.4,0.2,0.8,0.3,1.3,0.4c0.4,0.2,0.8,0.3,1.3,0.5c0.4,0.2,0.8,0.4,1.3,0.5
				c0.4,0.2,0.8,0.4,1.2,0.6s0.8,0.4,1.3,0.6c0.4,0.2,0.8,0.4,1.3,0.6s0.8,0.5,1.3,0.6c0.4,0.2,0.7,0.4,1.2,0.6l0.1,0.1
				c0.4,0.2,0.9,0.4,1.3,0.7c0.2,0.1,0.3,0.2,0.4,0.2c0.3,0.2,0.6,0.3,1,0.5s0.8,0.4,1.3,0.7c0.5,0.2,0.9,0.5,1.3,0.7
				c0.5,0.3,0.9,0.5,1.3,0.7c0.5,0.2,0.9,0.4,1.3,0.7c0.4,0.2,0.9,0.5,1.4,0.7c0.4,0.3,1,0.5,1.4,0.8c0.5,0.2,0.9,0.5,1.4,0.7
				c0.4,0.3,0.9,0.5,1.3,0.7c0.5,0.2,1,0.5,1.4,0.7s0.9,0.4,1.4,0.7c0.5,0.2,0.9,0.5,1.4,0.6c0.5,0.2,1,0.4,1.5,0.6
				c0.4,0.2,1,0.4,1.4,0.6s1,0.4,1.5,0.6s1,0.3,1.4,0.6c0.5,0.2,1,0.4,1.5,0.5c0.4,0.2,0.9,0.3,1.5,0.5c0.5,0.1,1,0.3,1.5,0.5
				c0.4,0.1,1,0.3,1.4,0.4c0.5,0.1,1.1,0.2,1.6,0.4c0.3,0,0.5,0.1,0.8,0.2c0.3,0,0.5,0.1,0.8,0.1c0.5,0.1,1,0.2,1.6,0.3
				c0.5,0.1,1,0.2,1.5,0.2c0.1,0,0.3,0,0.4,0.1c0.4,0,0.8,0.1,1.2,0.1c0.5,0,1.1,0.1,1.6,0.1s1.1,0.1,1.7,0c0.5,0,1,0,1.6,0
				s1.1,0,1.7,0s1.1-0.1,1.6-0.1c0.6-0.1,1.2-0.1,1.7-0.2c0.6-0.1,1.2-0.2,1.7-0.2c0.6-0.1,1.2-0.3,1.8-0.4c0.5-0.1,1.2-0.3,1.7-0.4
				c0.6-0.1,1.2-0.3,1.8-0.5c0.6-0.2,1.2-0.4,1.7-0.6c0.6-0.2,1.2-0.4,1.8-0.6c0.6-0.3,1.2-0.5,1.8-0.7c0.7-0.3,1.2-0.6,1.8-0.9
				c0.7-0.3,1.3-0.6,1.8-0.9c0.3-1.3,0.5-2,0.8-3.2c0.3-1.3,0.4-1.9,0.7-3.2c0.3-1.3,0.4-1.9,0.7-3.1c0.2-1.3,0.4-1.9,0.7-3.2
				c0.2-1.3,0.5-1.9,0.7-3.1c0.3-1.3,0.4-1.8,0.7-3.1c0.3-1.3,0.4-1.9,0.7-3.2c0.3-1.3,0.4-1.9,0.7-3.2c0.2-1.2,0.4-1.8,0.6-3
				c0.2-1.2,0.4-1.9,0.7-3.1c0.2-1.2,0.3-1.8,0.6-3.1c0.3-1.2,0.4-1.8,0.6-3c0.2-1.3,0.4-1.9,0.6-3.2c0.3-1.3,0.4-1.9,0.7-3.2
				c0.3-1.2,0.4-1.8,0.6-3c0.3-1.2,0.4-1.8,0.6-3.1c0.3-1.2,0.4-1.8,0.6-3c0.3-1.2,0.4-1.8,0.6-3c0.2-1.2,0.4-1.8,0.6-3
				c0.2-1.2,0.3-1.8,0.5-3C119.2,15.1,118.7,15.5,118,16z"/>
		</g>
		<path id="XMLID_227_" class="st1" d="M65.5,59c1.1-4.5,2.3-9,3.3-13.5c-0.8-0.3-1.2-0.5-2-0.8c-0.5-0.2-0.8-0.6-1-0.9
			c-0.2-0.5-0.3-0.9-0.2-1.5c0.2-0.4,0.4-0.8,0.8-1.1c0.3-0.2,0.7-0.3,1.2-0.1c0.8,0.3,1.2,0.5,2,0.8c0.6-2.5,1.2-4.9,1.7-7.3
			c0.2-0.6,0.4-1,0.8-1.2c0.3-0.3,0.8-0.3,1.3-0.2s0.9,0.4,1.1,0.8c0.3,0.4,0.3,0.9,0.2,1.5c-0.6,2.5-1.2,5-1.8,7.5
			c0.6,0.2,0.9,0.3,1.6,0.4c0.6,0.2,1,0.4,1.2,0.8c0.3,0.4,0.4,1,0.2,1.6c-0.1,0.5-0.4,0.9-0.9,1.2c-0.5,0.3-0.9,0.4-1.5,0.2
			c-0.6-0.2-1-0.3-1.5-0.5c-0.9,3.9-1.9,7.8-2.9,11.6c0.4-0.1,0.8-0.2,1.1-0.3c0.5-0.2,1-0.3,1.5,0c0.4,0.2,0.8,0.6,1,1.2
			s0.3,1.2,0.2,1.6c-0.6,1.3-3,1.7-4.5,1.9c-1.8,0.3-3.7,0.4-5.5,0.3c-0.4,0-0.8-0.2-1.2-0.6c-0.4-0.4-0.6-0.9-0.6-1.5
			c-0.1-0.6,0-1.1,0.3-1.5c0.2-0.4,0.6-0.6,1.1-0.5C63.4,59,64.4,59.1,65.5,59z M83.1,65c-2.3-0.2-4.6-0.7-6.9-1.5
			c-0.9-0.3-1.6-0.9-2-1.7c-0.5-0.9-0.7-1.7-0.4-2.5c1.4-5.8,2.9-11.6,4.3-17.4c0.3-0.9,0.7-1.6,1.6-2.1c0.8-0.5,1.6-0.8,2.6-0.6
			c0.8,0.1,1.4,0.1,2.3,0.2c1.7,0.1,3.4,0.1,5,0c0.3-1.1,0.4-1.7,0.7-2.8c0.1-0.7,0.5-1.2,1-1.6c0.6-0.5,1.2-0.7,2.1-0.8
			c0.7-0.1,1.3,0,1.7,0.3c0.5,0.3,0.7,0.8,0.5,1.4c-0.3,1.2-0.4,1.8-0.7,2.9c3.2-0.6,3.9-0.7,6.1-1.2c3.4-0.9,6.8,0.5,5.5,5.8
			c-1.6,6.9-2.2,9.5-4,16.8c-0.7,2.8-3.1,4.5-6.1,5.1c-3.1,0.5-5,0.2-8,0.3c-0.7,2.6-1.3,5.2-1.9,7.8c-0.2,0.7-0.6,1.3-1.3,1.7
			c-0.5,0.3-1.2,0.5-1.9,0.4c-0.6-0.1-1.2-0.5-1.6-0.9c-0.3-0.5-0.3-1.1-0.3-1.8C81.8,70.2,82.4,67.5,83.1,65z M86.8,50.2
			c0.5-2.2,1-4.3,1.6-6.5c-1.7,0-3.4,0-5-0.1c-0.5-0.1-0.9,0-1.2,0.2c-0.3,0.3-0.5,0.6-0.6,1c-0.5,1.9-0.7,2.8-1.2,4.7
			C82.5,49.9,84.6,50.1,86.8,50.2z M84.2,60.8c0.5-2.2,1-4.2,1.6-6.4c-2.1-0.2-4.2-0.4-6.3-0.9c-0.4,1.9-0.7,2.9-1.2,4.8
			c-0.1,0.4-0.1,0.8,0.1,1.1c0.1,0.3,0.4,0.6,1,0.7C80.9,60.6,82.3,60.7,84.2,60.8z M93.5,43.4c-0.6,2.2-1,4.3-1.5,6.5
			c2.6-0.3,5.2-0.4,7.9-1c0.4-1.8,0.8-3.7,1.3-5.5c0.1-0.5-0.1-0.8-0.5-0.9c-0.4-0.2-0.8-0.2-1.5,0C97.4,42.8,95.4,43.1,93.5,43.4z
			 M90.8,54.3c-0.6,2.3-1.1,4.6-1.7,6.8c1.8-0.1,3.6,0.1,5.4-0.2c0.7-0.1,1.3-0.4,1.7-0.8c0.4-0.3,0.8-0.8,1-1.3
			c0.5-1.9,0.9-3.5,1.4-5.4C96,54.2,93.5,54.2,90.8,54.3z"/>
		<path id="XMLID_222_" class="st1" d="M27.1,47.4L27.1,47.4c-1.1,2.5-3.1,5.3-5.5,7.2c-0.5,0.4-0.9,0.7-1.3,0.7
			c-0.4,0.1-0.8,0.1-1-0.1c-0.4-0.4-0.1-1.2,0.8-2c0.3-0.3,0.7-0.6,1-1.1c3.2-3.9,5.3-8.3,6.9-12.8c1.1-3.4,2.2-6.7,3.3-10.1
			c0.2-0.4,0.4-0.9,0.8-1.2c0.3-0.3,0.8-0.6,1.3-0.7c0.4-0.1,0.8-0.1,1,0.1c0.2,0.2,0.3,0.5,0.1,1.1c-0.6,1.8-0.9,2.8-1.5,4.7
			c0.7-0.8,1.3-1.4,1.8-2c0.3-0.3,0.7-0.6,1.1-0.8c0.3-0.1,0.7-0.1,1,0c0.3,0.1,0.5,0.4,0.5,0.7c-0.5,2.1-3.8,4.3-5.7,6.1
			c-0.2,0.7-0.3,1-0.5,1.7c-0.7,1.9-2,4-2,4.9c0,1.3,1.5,3.7,1.8,5.2c0.1,0.4,0,0.8-0.3,1.2c-0.2,0.4-0.6,0.6-1,0.7
			c-0.5,0.2-0.9,0.1-1.2,0.1c-0.3-0.1-0.6-0.4-0.7-0.9C27.7,49.3,27.1,47.4,27.1,47.4z M25.8,35.5c0.1-0.3,0.2-0.7,0.5-1.1
			c0.3-0.3,0.7-0.6,1.1-0.9c0.4-0.2,0.8-0.3,1-0.2c0.3,0.1,0.3,0.3,0.3,0.7c0,0-1,6.7-2.8,8.6c-0.3,0.3-0.7,0.5-1.1,0.6
			c-0.3,0.1-0.7,0.1-0.8,0c-0.2-0.1-0.2-0.5,0-0.8C24.6,40.2,25.4,37.7,25.8,35.5z M35,37.4c-1.2,0.9-2.5,1.4-2.5,1.4
			c-0.3-0.1-0.5-0.2-0.6-0.4c-0.1-0.3-0.1-0.6,0.1-0.9c0.2-0.3,0.5-0.6,0.9-0.8c1.3-0.8,2.6-1.7,3.4-2.8c0.4-0.5,0.8-0.9,1.3-1.2
			c0.4-0.3,1-0.5,1.7-0.5c0.6-1.8,0.9-2.7,1.5-4.4c0.2-0.4,0.4-0.8,0.7-1c0.3-0.3,0.8-0.4,1.2-0.3c0.4,0,0.7,0.1,0.9,0.4
			c0.2,0.3,0.3,0.6,0.1,1c0,0.1,0,0.2-0.1,0.3c1.3,0.1,2,0.1,3.2,0.3c0.5,0.1,0.8,0.3,1,0.5c0.2,0.3,0.2,0.6,0.1,1
			c-0.2,0.3-0.4,0.6-0.7,0.8C46.8,31,46.4,31.1,46,31c-1.3-0.2-2-0.3-3.2-0.4c-0.2,0.7-0.3,1-0.5,1.6c0.5,0,2.8,0.2,3.2,0.6
			c0.4,0.3,0.6,0.8,0.6,1.3s-0.2,1.2-0.7,1.9c-1.8,2.2-7.1,5.1-7.2,5.5c0,0.1,2.3,3.1,1.1,3.9c0.6,0.2,1,0.3,1.7,0.4
			c0.4-1.2,0.5-1.7,0.9-2.9c0.2-0.5,0.5-0.8,0.8-1l0,0c0,0-0.3-0.6-0.3-0.9c0-0.5,0.1-0.9,0.4-1.2c0.3-0.3,0.6-0.5,1.2-0.6
			c1.6-0.2,3.1-0.3,4-0.6c0.1,0,0.5-0.1,0.5-0.1c-1.6-4-1.3-4-1.3-4c0-0.8,0.5-1.2,0.9-1.3c0.5-0.1,1-0.1,1.2,0
			c0.4,0.1,0.7,0.6,0.9,1c0.4,1.1,1.1,3,1.2,3.2c0,0,1.4-0.6,3.9-3.1c0.3-0.2,0.3-0.5,0.2-0.7c-0.1-0.2-0.4-0.3-0.6-0.4
			c-2.2-0.7-3.2-0.9-5.3-1.4c-0.5-0.1-0.9-0.4-1.1-0.7s-0.2-0.8-0.1-1.1c0.1-0.5,0.4-0.8,0.8-1s0.9-0.3,1.4-0.1
			c2.4,0.5,4.7,1.2,7.2,1.8c0.9,0.3,1.7,0.7,2.1,1.5c0.4,0.9,0.3,1.8-0.4,2.6c-2.8,3.3-6.5,5.5-6.5,5.5s1.5,2,3.7,3.7
			c0.5,0.4,0.9,1,0.9,1.5s-0.2,1-0.6,1.3c-0.3,0.3-0.9,0.4-1.3,0.4c-0.7,0-1.2-0.3-1.7-0.7c-2.6-2.5-4.1-5-4.1-5
			c-3.9,1.1-5.4,1-5.4,1s0.2,0.1,0.2,0.2c0.2,0.4,0.3,0.8,0.1,1.3c-0.4,1.2-0.5,1.7-1,2.9c0.7,0.2,1,0.3,1.6,0.6
			c0.1-0.4,0.4-0.7,0.8-0.9c1-0.7,1.8-1.4,2.3-2c0.4-0.4,0.8-0.7,1.3-0.7s1,0.2,1.4,0.5c0.5,0.3,0.7,0.8,0.8,1.2
			c0.1,0.9-0.9,2-2.8,3.4c1.6,0.7,2.4,1,4.1,1.8c0.6,0.2,1,0.6,1.3,1c0.2,0.4,0.3,0.9,0.1,1.4c-0.2,0.5-0.5,0.7-1,0.9
			c-0.4,0.1-0.9,0.1-1.5-0.1c-2.7-1.3-5.3-2.5-8.1-3.6c1.9,3.4,4.6,6.5,7.2,9.4c0.6,0.5,0.9,1.1,0.9,1.6s-0.2,1-0.5,1.3
			C51.3,63,50.8,63,50.2,63c-0.5-0.2-1.1-0.5-1.5-1c-2.5-3-4.9-6.1-6.8-9.5c-0.6,1.8-0.9,2.7-1.5,4.5c-0.2,0.5-0.5,0.8-0.9,1
			c-0.3,0.1-0.8,0.1-1.2-0.1c-0.5-0.2-0.9-0.5-1-0.8c-0.2-0.4-0.2-0.9,0-1.4c0.6-1.8,0.9-2.7,1.5-4.5c-1.3,0.6-2.5,1.1-3.6,1.5
			c-2.2,0.8-5.3,2.4-7.1,1.8c-0.3-0.1-0.5-0.5-0.6-0.9c0-0.4,0.1-0.8,0.3-1.1c0.3-0.4,0.8-0.6,1.2-0.8c3.1-0.9,6.2-2,9.1-3.4
			c-2.1-0.6-4.2-0.9-6.4-1.1c-0.5,0-0.8-0.2-1-0.4c-0.1-0.3-0.2-0.6-0.1-1c0.1-0.4,0.4-0.7,0.7-1c0.4-0.3,0.8-0.4,1.3-0.3
			c1.2,0,1.8,0.1,3,0.3c-0.2-0.6-0.7-2-0.8-2.1c0,0-3.6,1.3-4.1,1.1c-0.3,0-0.6-0.3-0.7-0.6c-0.1-0.3,0-0.7,0.2-1s0.6-0.7,1.1-0.8
			c1.1-0.4,4.9-1.8,4.7-2.1C35.5,38.2,35,37.4,35,37.4z M37.1,36c0,0.2,1.4,1.7,1.7,1.7c0.2,0.1,3.6-2.3,3.6-2.6
			c0-0.2-3.7-0.6-3.9-0.4C38.1,35,37.1,35.9,37.1,36z"/>
	</g>
</g>
</svg>
