<?xml version="1.0" encoding="utf-8"?>
<!-- Generator: Adobe Illustrator 23.0.3, SVG Export Plug-In . SVG Version: 6.00 Build 0)  -->
<svg version="1.1" id="圖層_1" xmlns="http://www.w3.org/2000/svg" xmlns:xlink="http://www.w3.org/1999/xlink" x="0px" y="0px"
	 viewBox="0 0 1920 1350" style="enable-background:new 0 0 1920 1350;" xml:space="preserve">
<style type="text/css">
	.st0{opacity:7.000000e-02;}
	.st1{fill:url(#SVGID_1_);}
	.st2{fill:url(#SVGID_2_);}
</style>
<title>lable資產 1</title>
<g class="st0">
	
		<linearGradient id="SVGID_1_" gradientUnits="userSpaceOnUse" x1="-90.0898" y1="89.131" x2="683.8461" y2="863.057" gradientTransform="matrix(1 0 0 -1 9.094947e-13 1349.04)">
		<stop  offset="0" style="stop-color:#FFFFFF"/>
		<stop  offset="0.5" style="stop-color:#000000"/>
		<stop  offset="1" style="stop-color:#FFFFFF"/>
	</linearGradient>
	<path class="st1" d="M0,1350V275.6h245.5c98.1,0,170.5,9,217.2,26.9c49,18.9,90.1,47.9,123.1,87c47.2,56.1,70.7,122.2,70.8,198.1
		c0,80.7-26.9,148.5-80.7,203.4c-53.8,54.9-122.6,85-206.6,90.2L717,1347.1H596l-403.6-543c72.2,0,120.8-1.1,145.8-3.2
		c24-1.9,47.8-6.6,70.7-13.8c44.3-15.1,79.7-39.4,106.1-72.9c29.7-38.2,44.6-81.6,44.6-130.2c0-54.7-18.6-102.8-55.9-144.3
		c-24.5-27.8-55-47.6-91.6-59.4c-36.5-11.8-85.2-17.7-146.1-17.7H96.9V1350H0z"/>
</g>
<g class="st0">
	
		<linearGradient id="SVGID_2_" gradientUnits="userSpaceOnUse" x1="1820.0249" y1="-697.455" x2="2593.9395" y2="76.4594" gradientTransform="matrix(-1 0 0 1 3828.95 786.38)">
		<stop  offset="0" style="stop-color:#FFFFFF"/>
		<stop  offset="0.5" style="stop-color:#000000"/>
		<stop  offset="1" style="stop-color:#FFFFFF"/>
	</linearGradient>
	<path class="st2" d="M1920,0v1074.4h-245.5c-98.1,0-170.5-9-217.2-26.9c-49-18.9-90.1-47.9-123.1-87
		c-47.2-56.1-70.7-122.2-70.8-198.1c0-80.7,26.9-148.5,80.7-203.4s122.6-85,206.6-90.2L1201.3,0h121l405.3,545.9
		c-72.2,0-120.8,1.1-145.8,3.2c-24,1.9-47.8,6.6-70.7,13.8c-44.3,15.1-79.7,39.4-106.1,72.9c-29.7,38.2-44.6,81.6-44.6,130.2
		c0,54.7,18.6,102.8,55.9,144.3c24.5,27.8,55.1,47.6,91.6,59.4c36.5,11.8,85.2,17.7,146.1,17.7h169.1V0H1920z"/>
</g>
</svg>
