<?xml version="1.0" encoding="utf-8"?>
<!-- Generator: Adobe Illustrator 23.0.3, SVG Export Plug-In . SVG Version: 6.00 Build 0)  -->
<svg version="1.1" id="圖層_1" xmlns="http://www.w3.org/2000/svg" xmlns:xlink="http://www.w3.org/1999/xlink" x="0px" y="0px"
	 viewBox="0 0 39.7 59.3" style="enable-background:new 0 0 39.7 59.3;" xml:space="preserve">
<style type="text/css">
	.st0{opacity:0.1;}
	.st1{fill:url(#SVGID_1_);}
</style>
<title>lable資產 1</title>
<g class="st0">
	<g id="圖層_3">
		
			<linearGradient id="SVGID_1_" gradientUnits="userSpaceOnUse" x1="-4.905" y1="7.585" x2="37.8222" y2="50.3122" gradientTransform="matrix(1 0 0 -1 0 62)">
			<stop  offset="0" style="stop-color:#FFFFFF"/>
			<stop  offset="0.5" style="stop-color:#000000"/>
			<stop  offset="1" style="stop-color:#FFFFFF"/>
		</linearGradient>
		<path class="st1" d="M0,59.3V0h13.6c5.4,0,9.4,0.5,12,1.5c6.5,2.5,10.8,8.8,10.7,15.8c0.1,4.2-1.5,8.2-4.5,11.2
			c-3,3.1-7.1,4.9-11.4,5l19.3,25.9H33L10.6,29.2c4,0,6.7-0.1,8-0.2c1.3-0.1,2.6-0.4,3.9-0.8c2.3-0.7,4.3-2.1,5.9-4
			c1.6-2.1,2.5-4.6,2.5-7.2c0-3-1.1-5.8-3.1-8c-1.4-1.5-3.1-2.7-5.1-3.3c-2.6-0.7-5.3-1.1-8.1-1H5.3v54.6H0z"/>
	</g>
</g>
</svg>
