<?xml version="1.0" encoding="utf-8"?>
<!-- Generator: Adobe Illustrator 23.0.3, SVG Export Plug-In . SVG Version: 6.00 Build 0)  -->
<svg version="1.1" id="圖層_1" xmlns="http://www.w3.org/2000/svg" xmlns:xlink="http://www.w3.org/1999/xlink" x="0px" y="0px"
	 viewBox="0 0 66 60" style="enable-background:new 0 0 66 60;" xml:space="preserve">
<style type="text/css">
	.st0{display:none;}
	.st1{display:inline;opacity:0.5;}
	.st2{clip-path:url(#SVGID_2_);}
	.st3{opacity:0.8;clip-path:url(#SVGID_4_);}
	.st4{clip-path:url(#SVGID_6_);}
	.st5{clip-path:url(#SVGID_8_);}
	.st6{clip-path:url(#SVGID_10_);}
	.st7{fill:#757575;}
	.st8{fill:url(#SVGID_11_);}
	.st9{fill:url(#SVGID_12_);}
</style>
<g id="bg" class="st0">
	<g class="st1">
		<g>
			<defs>
				<rect id="SVGID_1_" x="-304.8" y="-198.5" width="956.5" height="1016.9"/>
			</defs>
			<clipPath id="SVGID_2_">
				<use xlink:href="#SVGID_1_"  style="overflow:visible;"/>
			</clipPath>
			<g class="st2">
				<g>
					<defs>
						<rect id="SVGID_3_" x="-304.8" y="-198.5" width="956.5" height="1016.9"/>
					</defs>
					<clipPath id="SVGID_4_">
						<use xlink:href="#SVGID_3_"  style="overflow:visible;"/>
					</clipPath>
					<g class="st3">
						<g>
							<g>
								<defs>
									<rect id="SVGID_5_" x="-312" y="-199.4" width="970.9" height="1018.6"/>
								</defs>
								<clipPath id="SVGID_6_">
									<use xlink:href="#SVGID_5_"  style="overflow:visible;"/>
								</clipPath>
								<g class="st4">
									<g>
										<defs>
											<rect id="SVGID_7_" x="-304.8" y="-198.5" width="956.5" height="1016.9"/>
										</defs>
										<clipPath id="SVGID_8_">
											<use xlink:href="#SVGID_7_"  style="overflow:visible;"/>
										</clipPath>
										<g class="st5">
											<g>
												<defs>
													<rect id="SVGID_9_" x="-304.8" y="-198.5" width="956.5" height="1016.9"/>
												</defs>
												<clipPath id="SVGID_10_">
													<use xlink:href="#SVGID_9_"  style="overflow:visible;"/>
												</clipPath>
												<g transform="matrix(1 0 0 1 0 7.629395e-06)" class="st6">
													
														<image style="overflow:visible;enable-background:new    ;" width="560" height="560" xlink:href="56E0EB83.jpeg"  transform="matrix(-1.7081 0 0 1.8159 651.7542 -198.5298)">
													</image>
												</g>
											</g>
										</g>
									</g>
								</g>
							</g>
						</g>
					</g>
				</g>
			</g>
		</g>
	</g>
</g>
<g>
	
		<linearGradient id="SVGID_11_" gradientUnits="userSpaceOnUse" x1="32.3642" y1="5.747" x2="64.31" y2="37.6927" gradientTransform="matrix(1 0 0 -1 0 62.21)">
		<stop  offset="0" style="stop-color:#FFFFFF"/>
		<stop  offset="0.5" style="stop-color:#000000"/>
		<stop  offset="1" style="stop-color:#FFFFFF"/>
	</linearGradient>
	<path class="st8" d="M61.5,40.2c2.4-2.5,3.6-5.5,3.6-9.1c0-3.4-1.1-6.4-3.2-8.9c-1.5-1.8-3.3-3.1-5.5-3.9c-2.1-0.8-5.3-1.2-9.6-1.2
		H35.7v42.7h5.2v-38h6.8c2.6,0,4.6,0.2,6.2,0.7c1.5,0.5,2.7,1.3,3.7,2.4c1.5,1.7,2.3,3.7,2.3,5.9c0,2-0.6,3.8-1.8,5.3
		c-1.1,1.4-2.5,2.4-4.3,3c-0.9,0.3-1.9,0.5-2.9,0.6c-1.1,0.1-3.2,0.1-6.3,0.1h-1l14.8,19.7l0.2,0.2H65L53.2,44.2
		C56.5,43.8,59.3,42.5,61.5,40.2z"/>
	<g>
		
			<linearGradient id="SVGID_12_" gradientUnits="userSpaceOnUse" x1="-4.1353" y1="7.2388" x2="39.0841" y2="50.4583" gradientTransform="matrix(1 0 0 -1 0 62.21)">
			<stop  offset="0" style="stop-color:#FFFFFF"/>
			<stop  offset="0.5" style="stop-color:#000000"/>
			<stop  offset="1" style="stop-color:#FFFFFF"/>
		</linearGradient>
		<path class="st9" d="M0.9,60V0h13.7c5.5,0,9.5,0.5,12.1,1.5c2.7,1.1,5,2.7,6.9,4.9c2.6,3.1,4,6.8,4,11.1c0,4.5-1.5,8.3-4.5,11.4
			c-3,3.1-6.8,4.7-11.5,5l19.4,26h-6.8L11.6,29.5c4,0,6.7-0.1,8.1-0.2c1.4-0.1,2.7-0.4,4-0.8c2.5-0.8,4.5-2.2,5.9-4.1
			c1.7-2.1,2.5-4.6,2.5-7.3c0-3.1-1-5.7-3.1-8.1c-1.4-1.6-3.1-2.7-5.1-3.3c-2-0.7-4.8-1-8.2-1H6.3V60L0.9,60L0.9,60z"/>
	</g>
</g>
</svg>
