<?xml version="1.0" encoding="utf-8"?>
<!-- Generator: Adobe Illustrator 23.0.3, SVG Export Plug-In . SVG Version: 6.00 Build 0)  -->
<svg version="1.1" id="圖層_1" xmlns="http://www.w3.org/2000/svg" xmlns:xlink="http://www.w3.org/1999/xlink" x="0px" y="0px"
	 viewBox="0 0 50 46.6" style="enable-background:new 0 0 50 46.6;" xml:space="preserve">
<style type="text/css">
	.st0{display:none;}
	.st1{display:inline;opacity:0.5;}
	.st2{clip-path:url(#SVGID_2_);}
	.st3{opacity:0.8;clip-path:url(#SVGID_4_);}
	.st4{clip-path:url(#SVGID_6_);}
	.st5{clip-path:url(#SVGID_8_);}
	.st6{clip-path:url(#SVGID_10_);}
	.st7{fill:#757575;}
	.st8{fill:url(#SVGID_11_);}
	.st9{fill:url(#SVGID_12_);}
	.st10{fill:url(#SVGID_13_);}
	.st11{fill:url(#SVGID_14_);}
</style>
<g id="bg" class="st0">
	<g class="st1">
		<g>
			<defs>
				<rect id="SVGID_1_" x="-393.8" y="-198.5" width="956.5" height="1016.9"/>
			</defs>
			<clipPath id="SVGID_2_">
				<use xlink:href="#SVGID_1_"  style="overflow:visible;"/>
			</clipPath>
			<g class="st2">
				<g>
					<defs>
						<rect id="SVGID_3_" x="-393.8" y="-198.5" width="956.5" height="1016.9"/>
					</defs>
					<clipPath id="SVGID_4_">
						<use xlink:href="#SVGID_3_"  style="overflow:visible;"/>
					</clipPath>
					<g class="st3">
						<g>
							<g>
								<defs>
									<rect id="SVGID_5_" x="-400.9" y="-199.4" width="970.9" height="1018.6"/>
								</defs>
								<clipPath id="SVGID_6_">
									<use xlink:href="#SVGID_5_"  style="overflow:visible;"/>
								</clipPath>
								<g class="st4">
									<g>
										<defs>
											<rect id="SVGID_7_" x="-393.8" y="-198.5" width="956.5" height="1016.9"/>
										</defs>
										<clipPath id="SVGID_8_">
											<use xlink:href="#SVGID_7_"  style="overflow:visible;"/>
										</clipPath>
										<g class="st5">
											<g>
												<defs>
													<rect id="SVGID_9_" x="-393.8" y="-198.5" width="956.5" height="1016.9"/>
												</defs>
												<clipPath id="SVGID_10_">
													<use xlink:href="#SVGID_9_"  style="overflow:visible;"/>
												</clipPath>
												<g transform="matrix(1 0 0 1 0 7.629395e-06)" class="st6">
													
														<image style="overflow:visible;enable-background:new    ;" width="560" height="560" xlink:href="F6AAD3CC.jpeg"  transform="matrix(-1.7081 0 0 1.8159 562.7942 -198.5298)">
													</image>
												</g>
											</g>
										</g>
									</g>
								</g>
							</g>
						</g>
					</g>
				</g>
			</g>
		</g>
	</g>
</g>
<g>
	
		<linearGradient id="SVGID_11_" gradientUnits="userSpaceOnUse" x1="24.505" y1="18.2446" x2="49.3798" y2="43.1194" gradientTransform="matrix(1 0 0 -1 0 62.21)">
		<stop  offset="0" style="stop-color:#FFFFFF"/>
		<stop  offset="0.5" style="stop-color:#000000"/>
		<stop  offset="1" style="stop-color:#FFFFFF"/>
	</linearGradient>
	<path class="st8" d="M47.2,31.3C49,29.4,50,27,50,24.2c0-2.6-0.8-5-2.5-6.9c-1.1-1.4-2.6-2.4-4.3-3c-1.6-0.6-4.1-0.9-7.4-0.9h-8.7
		v33.3h4V17h5.3c2,0,3.6,0.2,4.8,0.6c1.2,0.4,2.1,1,2.9,1.9c1.2,1.3,1.8,2.9,1.8,4.6c0,1.5-0.5,2.9-1.4,4.1c-0.8,1.1-2,1.8-3.4,2.3
		c-0.7,0.2-1.5,0.4-2.3,0.4c-0.8,0.1-2.5,0.1-4.9,0.1h-0.8l11.5,15.3l0.1,0.2h5.1l-9.2-12.2C43.3,34.1,45.5,33.1,47.2,31.3z"/>
	<g>
		
			<linearGradient id="SVGID_12_" gradientUnits="userSpaceOnUse" x1="-3.9157" y1="19.4062" x2="29.7374" y2="53.0594" gradientTransform="matrix(1 0 0 -1 0 62.21)">
			<stop  offset="0" style="stop-color:#FFFFFF"/>
			<stop  offset="0.5" style="stop-color:#000000"/>
			<stop  offset="1" style="stop-color:#FFFFFF"/>
		</linearGradient>
		<path class="st9" d="M0,46.7V0h10.7c4.3,0,7.4,0.4,9.4,1.2C22.3,2,24,3.2,25.5,5c2,2.4,3.1,5.3,3.1,8.6c0,3.5-1.2,6.5-3.5,8.8
			c-2.3,2.4-5.3,3.7-9,3.9l15.1,20.3h-5.3L8.4,23c3.1,0,5.3,0,6.3-0.1c1.1-0.1,2.1-0.3,3.1-0.6c1.9-0.7,3.5-1.7,4.6-3.2
			c1.3-1.7,1.9-3.5,1.9-5.7c0-2.4-0.8-4.5-2.4-6.3c-1.1-1.2-2.4-2.1-4-2.6c-1.6-0.5-3.7-0.8-6.4-0.8H4.2v42.9L0,46.7L0,46.7z"/>
	</g>
</g>
</svg>
