<?xml version="1.0" encoding="utf-8"?>
<!-- Generator: Adobe Illustrator 23.0.3, SVG Export Plug-In . SVG Version: 6.00 Build 0)  -->
<svg version="1.1" id="圖層_1" xmlns="http://www.w3.org/2000/svg" xmlns:xlink="http://www.w3.org/1999/xlink" x="0px" y="0px"
	 viewBox="0 0 77.9 48.9" style="enable-background:new 0 0 77.9 48.9;" xml:space="preserve">
<style type="text/css">
	.st0{display:none;}
	.st1{display:inline;opacity:0.5;}
	.st2{clip-path:url(#SVGID_2_);}
	.st3{opacity:0.8;clip-path:url(#SVGID_4_);}
	.st4{clip-path:url(#SVGID_6_);}
	.st5{clip-path:url(#SVGID_8_);}
	.st6{clip-path:url(#SVGID_10_);}
	.st7{fill:url(#SVGID_11_);}
	.st8{fill:url(#SVGID_12_);}
	.st9{fill:#757575;}
</style>
<g id="bg" class="st0">
	<g class="st1">
		<g>
			<g>
				<defs>
					<rect id="SVGID_1_" x="-476.8" y="-198.5" width="956.5" height="1016.9"/>
				</defs>
				<clipPath id="SVGID_2_">
					<use xlink:href="#SVGID_1_"  style="overflow:visible;"/>
				</clipPath>
				<g class="st2">
					<g>
						<g>
							<defs>
								<rect id="SVGID_3_" x="-476.8" y="-198.5" width="956.5" height="1016.9"/>
							</defs>
							<clipPath id="SVGID_4_">
								<use xlink:href="#SVGID_3_"  style="overflow:visible;"/>
							</clipPath>
							<g class="st3">
								<g>
									<g>
										<g>
											<defs>
												<rect id="SVGID_5_" x="-484" y="-199.4" width="970.9" height="1018.6"/>
											</defs>
											<clipPath id="SVGID_6_">
												<use xlink:href="#SVGID_5_"  style="overflow:visible;"/>
											</clipPath>
											<g class="st4">
												<g>
													<g>
														<defs>
															<rect id="SVGID_7_" x="-476.8" y="-198.5" width="956.5" height="1016.9"/>
														</defs>
														<clipPath id="SVGID_8_">
															<use xlink:href="#SVGID_7_"  style="overflow:visible;"/>
														</clipPath>
														<g class="st5">
															<g>
																<g>
																	<defs>
																		<rect id="SVGID_9_" x="-476.8" y="-198.5" width="956.5" height="1016.9"/>
																	</defs>
																	<clipPath id="SVGID_10_">
																		<use xlink:href="#SVGID_9_"  style="overflow:visible;"/>
																	</clipPath>
																	<g transform="matrix(1 0 0 1 0 7.629395e-06)" class="st6">
																		
																			<image style="overflow:visible;enable-background:new    ;" width="560" height="560" xlink:href="8991139E.jpg"  transform="matrix(-1.7081 0 0 1.8159 479.7531 -198.5298)">
																		</image>
																	</g>
																</g>
															</g>
														</g>
													</g>
												</g>
											</g>
										</g>
									</g>
								</g>
							</g>
						</g>
					</g>
				</g>
			</g>
		</g>
	</g>
</g>
<g>
	
		<linearGradient id="SVGID_11_" gradientUnits="userSpaceOnUse" x1="26.05" y1="271.84" x2="52.1895" y2="245.7004" gradientTransform="matrix(1 0 0 1 0 -225.79)">
		<stop  offset="0" style="stop-color:#FFFFFF"/>
		<stop  offset="0.5" style="stop-color:#000000"/>
		<stop  offset="1" style="stop-color:#FFFFFF"/>
	</linearGradient>
	<path class="st7" d="M50,32.7c2-2,3-4.5,3-7.4c0-2.8-0.9-5.2-2.6-7.2c-1.2-1.4-2.7-2.5-4.6-3.2c-1.7-0.6-4.4-1-7.9-1h-9.2v34.8H33
		V17.8h5.6c2.1,0,3.8,0.2,5.1,0.6c1.2,0.4,2.3,1.1,3.1,2c1.3,1.4,1.9,3,1.9,4.8c0,1.6-0.5,3.1-1.5,4.3c-0.9,1.1-2.1,1.9-3.6,2.4
		c-0.8,0.2-1.6,0.4-2.4,0.5c-0.9,0.1-2.6,0.1-5.2,0.1h-0.8l12.2,16l0.1,0.2h5.4L43.1,36C45.9,35.7,48.2,34.6,50,32.7z"/>
	<g>
		
			<linearGradient id="SVGID_12_" gradientUnits="userSpaceOnUse" x1="-3.95" y1="270.64" x2="31.3711" y2="235.3188" gradientTransform="matrix(1 0 0 1 0 -225.79)">
			<stop  offset="0" style="stop-color:#FFFFFF"/>
			<stop  offset="0.5" style="stop-color:#000000"/>
			<stop  offset="1" style="stop-color:#FFFFFF"/>
		</linearGradient>
		<path class="st8" d="M0,48.8V0h11.3c4.5,0,7.9,0.4,10,1.2c2.3,0.9,4.1,2.2,5.7,4c2.2,2.6,3.3,5.6,3.3,9c0,3.7-1.2,6.7-3.7,9.2
			s-5.6,3.9-9.5,4.1l16,21.2h-5.6L8.9,24c3.3,0,5.6,0,6.7-0.1c1.2-0.1,2.2-0.3,3.3-0.6c2-0.7,3.7-1.8,4.9-3.3
			c1.4-1.7,2.1-3.7,2.1-5.9c0-2.5-0.9-4.7-2.6-6.6c-1.1-1.3-2.5-2.2-4.2-2.7c-1.8-0.6-4-0.8-6.8-0.8H4.5v44.9L0,48.8L0,48.8z"/>
	</g>
</g>
<g>
	<g>
		<path class="st9" d="M55.3,29.4h0.4c0,0.2,0.1,0.4,0.2,0.5c0.1,0.1,0.2,0.2,0.3,0.2s0.2,0.1,0.4,0.1c0.1,0,0.2,0,0.3-0.1
			c0.1,0,0.2-0.1,0.3-0.2c0.1-0.2,0.2-0.3,0.2-0.5c0-0.2-0.1-0.4-0.3-0.6c-0.1-0.1-0.3-0.2-0.6-0.3c-0.2-0.1-0.4-0.1-0.5-0.2
			s-0.2-0.1-0.3-0.2c-0.2-0.2-0.3-0.4-0.3-0.7c0-0.3,0.1-0.5,0.3-0.7c0.2-0.2,0.5-0.3,0.8-0.3c0.3,0,0.6,0.1,0.8,0.3
			s0.3,0.5,0.3,0.8h-0.4c0-0.2-0.1-0.4-0.2-0.5c-0.1-0.1-0.3-0.2-0.5-0.2c-0.2,0-0.3,0.1-0.5,0.2c-0.1,0.1-0.2,0.3-0.2,0.5
			s0.1,0.4,0.2,0.5c0.1,0.1,0.3,0.2,0.6,0.3c0.2,0.1,0.4,0.1,0.5,0.2s0.2,0.1,0.3,0.2c0.1,0.1,0.2,0.2,0.3,0.4s0.1,0.3,0.1,0.5
			c0,0.3-0.1,0.6-0.3,0.8c-0.2,0.2-0.5,0.4-0.9,0.4c-0.2,0-0.4,0-0.6-0.1c-0.2-0.1-0.3-0.2-0.4-0.4C55.3,29.9,55.3,29.7,55.3,29.4z"
			/>
		<path class="st9" d="M58.8,30.5v-3.6h-0.9v-0.4h2.2v0.4h-0.9v3.6H58.8z"/>
		<path class="st9" d="M62.3,26.4c0.4,0,0.8,0.1,1.2,0.4c0.3,0.2,0.6,0.5,0.7,0.8c0.1,0.3,0.2,0.6,0.2,0.9c0,0.5-0.2,1-0.6,1.4
			c-0.2,0.2-0.4,0.4-0.7,0.5c-0.3,0.1-0.6,0.2-0.9,0.2c-0.4,0-0.8-0.1-1.2-0.4c-0.3-0.2-0.6-0.5-0.7-0.8c-0.1-0.3-0.2-0.6-0.2-0.9
			c0-0.3,0.1-0.7,0.3-1c0.2-0.3,0.5-0.6,0.8-0.8C61.6,26.5,61.9,26.4,62.3,26.4z M62.3,26.8c-0.5,0-0.9,0.2-1.2,0.5
			c-0.2,0.2-0.3,0.3-0.4,0.6c-0.1,0.2-0.1,0.4-0.1,0.6c0,0.4,0.1,0.8,0.4,1.1c0.2,0.2,0.4,0.3,0.6,0.4c0.2,0.1,0.5,0.2,0.7,0.2
			c0.3,0,0.7-0.1,1-0.3c0.3-0.2,0.5-0.4,0.6-0.7C64,29,64,28.8,64,28.5c0-0.3-0.1-0.6-0.2-0.9c-0.2-0.3-0.4-0.5-0.7-0.6
			C62.9,26.9,62.6,26.8,62.3,26.8z"/>
		<path class="st9" d="M65.1,30.5v-4h1c0.4,0,0.7,0,0.9,0.1c0.2,0.1,0.4,0.2,0.5,0.4c0.2,0.2,0.3,0.5,0.3,0.8c0,0.3-0.1,0.6-0.3,0.8
			S67,29,66.6,29l1.1,1.5h-0.5l-1.4-1.8c0.3,0,0.5,0,0.6,0s0.2,0,0.3-0.1c0.2-0.1,0.3-0.2,0.4-0.3c0.1-0.2,0.2-0.3,0.2-0.5
			c0-0.2-0.1-0.4-0.2-0.6c-0.1-0.1-0.2-0.2-0.4-0.2s-0.4-0.1-0.6-0.1h-0.7v3.6H65.1z"/>
		<path class="st9" d="M69.3,30.5v-1.3l-1.4-2.7h0.4l1.1,2.2l1.2-2.2h0.4l-1.4,2.7v1.3H69.3z"/>
		<path class="st9" d="M57.5,32.4c0.4,0,0.8,0.1,1.2,0.4c0.3,0.2,0.6,0.5,0.7,0.8c0.1,0.3,0.2,0.6,0.2,0.9c0,0.5-0.2,1-0.6,1.4
			c-0.2,0.2-0.4,0.4-0.7,0.5c-0.3,0.1-0.6,0.2-0.9,0.2c-0.4,0-0.8-0.1-1.2-0.4c-0.3-0.2-0.6-0.5-0.7-0.8c-0.1-0.3-0.2-0.6-0.2-0.9
			c0-0.3,0.1-0.7,0.3-1c0.2-0.3,0.5-0.6,0.8-0.8C56.8,32.5,57.1,32.4,57.5,32.4z M57.5,32.8c-0.5,0-0.9,0.2-1.2,0.5
			c-0.2,0.2-0.3,0.3-0.4,0.6c-0.1,0.2-0.1,0.4-0.1,0.6c0,0.4,0.1,0.8,0.4,1.1c0.2,0.2,0.4,0.3,0.6,0.4c0.2,0.1,0.5,0.2,0.7,0.2
			c0.3,0,0.7-0.1,1-0.3c0.3-0.2,0.5-0.4,0.6-0.7c0.1-0.2,0.2-0.5,0.2-0.7c0-0.3-0.1-0.6-0.2-0.9c-0.2-0.3-0.4-0.5-0.7-0.6
			C58,32.9,57.8,32.8,57.5,32.8z"/>
		<path class="st9" d="M60.3,36.5v-4h2v0.4h-1.6v1.5h1.6v0.4h-1.6v1.8H60.3z"/>
		<path class="st9" d="M56.2,42.5v-3.6h-0.9v-0.4h2.2v0.4h-0.9v3.6H56.2z"/>
		<path class="st9" d="M58,42.5v-4h0.4v1.8h2.1v-1.8h0.4v4h-0.4v-1.9h-2.1v1.9H58z"/>
		<path class="st9" d="M61.7,42.5v-4h2.2v0.4h-1.8v1.4h1.7v0.4h-1.7v1.5h1.8v0.4H61.7z"/>
		<path class="st9" d="M55.6,48.5v-4h1.1c0.5,0,1,0.1,1.3,0.3c0.3,0.2,0.5,0.4,0.7,0.7c0.2,0.3,0.3,0.6,0.3,1c0,0.4-0.1,0.8-0.4,1.2
			c-0.2,0.3-0.5,0.5-0.7,0.6s-0.6,0.2-1.1,0.2H55.6z M56,48.1h0.6c0.4,0,0.7,0,0.9-0.1c0.4-0.1,0.6-0.3,0.9-0.6
			c0.2-0.3,0.3-0.6,0.3-0.9c0-0.4-0.1-0.7-0.3-0.9c-0.2-0.3-0.4-0.4-0.7-0.5s-0.6-0.2-1-0.2H56V48.1z"/>
		<path class="st9" d="M59.6,48.5v-4h2.2v0.4H60v1.4h1.7v0.4H60v1.5h1.8v0.4H59.6z"/>
		<path class="st9" d="M62.2,47.4h0.4c0,0.2,0.1,0.4,0.2,0.5c0.1,0.1,0.2,0.2,0.3,0.2s0.2,0.1,0.4,0.1c0.1,0,0.2,0,0.3-0.1
			c0.1,0,0.2-0.1,0.3-0.2c0.1-0.2,0.2-0.3,0.2-0.5c0-0.2-0.1-0.4-0.3-0.6c-0.1-0.1-0.3-0.2-0.6-0.3c-0.2-0.1-0.4-0.1-0.5-0.2
			s-0.2-0.1-0.3-0.2c-0.2-0.2-0.3-0.4-0.3-0.7c0-0.3,0.1-0.5,0.3-0.7c0.2-0.2,0.5-0.3,0.8-0.3c0.3,0,0.6,0.1,0.8,0.3
			s0.3,0.5,0.3,0.8h-0.4c0-0.2-0.1-0.4-0.2-0.5c-0.1-0.1-0.3-0.2-0.5-0.2c-0.2,0-0.3,0.1-0.5,0.2c-0.1,0.1-0.2,0.3-0.2,0.5
			s0.1,0.4,0.2,0.5c0.1,0.1,0.3,0.2,0.6,0.3c0.2,0.1,0.4,0.1,0.5,0.2s0.2,0.1,0.3,0.2c0.1,0.1,0.2,0.2,0.3,0.4s0.1,0.3,0.1,0.5
			c0,0.3-0.1,0.6-0.3,0.8c-0.2,0.2-0.5,0.4-0.9,0.4c-0.2,0-0.4,0-0.6-0.1c-0.2-0.1-0.3-0.2-0.4-0.4C62.3,47.9,62.2,47.7,62.2,47.4z"
			/>
		<path class="st9" d="M65.3,48.5v-4h0.4v4H65.3z"/>
		<path class="st9" d="M67.9,46.7h2.7c0,0.5-0.2,0.9-0.5,1.2c-0.2,0.2-0.4,0.4-0.7,0.5c-0.3,0.1-0.6,0.2-0.9,0.2
			c-0.5,0-1-0.2-1.4-0.5c-0.2-0.2-0.4-0.4-0.5-0.7c-0.1-0.3-0.2-0.5-0.2-0.8c0-0.4,0.1-0.8,0.4-1.1c0.2-0.3,0.5-0.5,0.8-0.7
			c0.3-0.1,0.6-0.2,1-0.2c0.5,0,0.9,0.1,1.3,0.4c0.3,0.2,0.5,0.5,0.6,0.7h-0.5c-0.1-0.2-0.3-0.4-0.5-0.5c-0.3-0.2-0.6-0.3-0.9-0.3
			c-0.3,0-0.6,0.1-0.9,0.3c-0.3,0.2-0.5,0.4-0.6,0.7c-0.1,0.3-0.2,0.5-0.2,0.8c0,0.3,0.1,0.6,0.3,0.9c0.2,0.3,0.4,0.5,0.7,0.6
			c0.3,0.1,0.5,0.2,0.8,0.2c0.5,0,0.8-0.2,1.2-0.5c0.2-0.2,0.4-0.5,0.4-0.7h-2.2V46.7z"/>
		<path class="st9" d="M71.2,48.5v-4h0.5l2.2,3.3v-3.3h0.4v4H74L71.6,45v3.5H71.2z"/>
	</g>
</g>
<g>
	<rect x="103" y="39.8" style="fill:none;" width="30.9" height="34.2"/>
	<text transform="matrix(1 0 0 1 102.9543 44.9604)"><tspan x="0" y="0" class="st9" style="font-family:'ArialMT'; font-size:6px;">STORY</tspan><tspan x="0" y="6" class="st9" style="font-family:'ArialMT'; font-size:6px;">OF </tspan><tspan x="0" y="12" class="st9" style="font-family:'ArialMT'; font-size:6px;">THE</tspan><tspan x="0" y="18" class="st9" style="font-family:'ArialMT'; font-size:6px;">DESIGN</tspan></text>
</g>
<g>
	<g>
		<g>
			<path class="st9" d="M91.9,30.2L92,30c0.3,0.3,0.7,0.5,1.2,0.5c0.6,0,1-0.3,1-0.8c0-0.5-0.3-0.7-0.7-0.8l-0.6-0.3
				c-0.3-0.2-0.8-0.4-0.8-1c0-0.6,0.5-1,1.1-1c0.5,0,0.9,0.2,1.1,0.5l-0.2,0.2c-0.2-0.2-0.5-0.4-0.9-0.4c-0.5,0-0.9,0.3-0.9,0.7
				c0,0.5,0.4,0.6,0.7,0.8l0.6,0.3c0.4,0.2,0.8,0.4,0.8,1c0,0.6-0.5,1.1-1.3,1.1C92.6,30.8,92.2,30.5,91.9,30.2z"/>
			<path class="st9" d="M96.1,27h-1.3v-0.2h2.8V27h-1.3v3.7h-0.3V27z"/>
			<path class="st9" d="M98.2,28.7c0-1.3,0.7-2,1.6-2s1.6,0.8,1.6,2c0,1.3-0.7,2.1-1.6,2.1S98.2,30,98.2,28.7z M101.1,28.7
				c0-1.1-0.5-1.8-1.3-1.8s-1.3,0.7-1.3,1.8c0,1.1,0.5,1.8,1.3,1.8S101.1,29.8,101.1,28.7z"/>
			<path class="st9" d="M102.3,26.8h1.1c0.8,0,1.3,0.3,1.3,1c0,0.7-0.5,1.1-1.3,1.1h-0.9v1.8h-0.3V26.8z M103.4,28.7
				c0.7,0,1.1-0.3,1.1-0.9c0-0.6-0.4-0.8-1.1-0.8h-0.8v1.7H103.4z M103.4,28.8l0.3-0.1l1.2,2h-0.3L103.4,28.8z"/>
			<path class="st9" d="M106.2,29.1l-1.2-2.3h0.3l0.6,1.2c0.1,0.3,0.3,0.6,0.4,0.9h0c0.2-0.3,0.3-0.6,0.4-0.9l0.6-1.2h0.3l-1.2,2.3
				v1.6h-0.3V29.1z"/>
			<path class="st9" d="M91.9,34.7c0-1.3,0.7-2,1.6-2s1.6,0.8,1.6,2c0,1.3-0.7,2.1-1.6,2.1S91.9,36,91.9,34.7z M94.9,34.7
				c0-1.1-0.5-1.8-1.3-1.8s-1.3,0.7-1.3,1.8c0,1.1,0.5,1.8,1.3,1.8S94.9,35.8,94.9,34.7z"/>
			<path class="st9" d="M96.1,32.8h2.2V33h-1.9v1.6h1.6v0.2h-1.6v1.9h-0.3V32.8z"/>
			<path class="st9" d="M93,39h-1.3v-0.2h2.8V39h-1.3v3.7H93V39z"/>
			<path class="st9" d="M95.3,38.8h0.3v1.7h2.1v-1.7H98v4h-0.3v-2h-2.1v2h-0.3V38.8z"/>
			<path class="st9" d="M99.1,38.8h2.2V39h-1.9v1.5h1.6v0.2h-1.6v1.7h1.9v0.2h-2.2V38.8z"/>
			<path class="st9" d="M92.2,44.8h0.9c1.2,0,1.8,0.8,1.8,2s-0.6,2-1.8,2h-0.9V44.8z M93.1,48.5c1.1,0,1.5-0.7,1.5-1.8
				S94.1,45,93.1,45h-0.6v3.5H93.1z"/>
			<path class="st9" d="M95.8,44.8H98V45h-1.9v1.5h1.6v0.2h-1.6v1.7H98v0.2h-2.2V44.8z"/>
			<path class="st9" d="M98.6,48.2l0.2-0.2c0.3,0.3,0.7,0.5,1.2,0.5c0.6,0,1-0.3,1-0.8c0-0.5-0.3-0.7-0.7-0.8l-0.6-0.3
				c-0.3-0.2-0.8-0.4-0.8-1c0-0.6,0.5-1,1.1-1c0.5,0,0.9,0.2,1.1,0.5l-0.2,0.2c-0.2-0.2-0.5-0.4-0.9-0.4c-0.5,0-0.9,0.3-0.9,0.7
				c0,0.5,0.4,0.6,0.7,0.8l0.6,0.3c0.4,0.2,0.8,0.4,0.8,1c0,0.6-0.5,1.1-1.3,1.1C99.3,48.8,98.9,48.5,98.6,48.2z"/>
			<path class="st9" d="M102,44.8h0.3v4H102V44.8z"/>
			<path class="st9" d="M103.2,46.7c0-1.3,0.7-2,1.7-2c0.5,0,0.9,0.3,1.1,0.5l-0.2,0.2c-0.2-0.2-0.5-0.4-0.9-0.4
				c-0.9,0-1.5,0.7-1.5,1.8c0,1.1,0.5,1.8,1.4,1.8c0.4,0,0.7-0.1,0.9-0.3V47h-0.9v-0.2h1.2v1.6c-0.2,0.3-0.6,0.4-1.2,0.4
				C103.9,48.8,103.2,48,103.2,46.7z"/>
			<path class="st9" d="M107.1,44.8h0.3l1.7,2.8l0.4,0.8h0c0-0.4,0-0.8,0-1.2v-2.4h0.3v4h-0.3l-1.7-2.8l-0.4-0.8h0
				c0,0.4,0,0.7,0,1.1v2.5h-0.3V44.8z"/>
		</g>
	</g>
</g>
</svg>
